<svg width="675" height="120" viewBox="0 0 675 120" fill="none" xmlns="http://www.w3.org/2000/svg">
<rect width="675" height="120" rx="12" fill="#DDD5C4"/>
<path d="M421.288 45.488C422.888 45.488 424.104 45.68 424.936 46.064C425.768 46.416 426.504 46.816 427.144 47.264C427.528 47.488 427.832 47.664 428.056 47.792C428.312 47.888 428.552 47.936 428.776 47.936C429.096 47.936 429.32 47.76 429.448 47.408C429.608 47.056 429.736 46.528 429.832 45.824H430.936C430.904 46.368 430.856 47.024 430.792 47.792C430.76 48.528 430.728 49.52 430.696 50.768C430.696 51.984 430.696 53.6 430.696 55.616H429.592C429.496 54.08 429.16 52.608 428.584 51.2C428.008 49.792 427.16 48.64 426.04 47.744C424.952 46.848 423.512 46.4 421.72 46.4C420.024 46.4 418.616 46.912 417.496 47.936C416.408 48.96 415.864 50.304 415.864 51.968C415.864 53.408 416.232 54.624 416.968 55.616C417.704 56.576 418.68 57.456 419.896 58.256C421.144 59.024 422.488 59.856 423.928 60.752C425.592 61.776 427.064 62.8 428.344 63.824C429.656 64.816 430.68 65.92 431.416 67.136C432.184 68.352 432.568 69.824 432.568 71.552C432.568 73.6 432.104 75.296 431.176 76.64C430.248 77.984 429.016 78.992 427.48 79.664C425.944 80.336 424.248 80.672 422.392 80.672C420.696 80.672 419.352 80.48 418.36 80.096C417.368 79.712 416.52 79.312 415.816 78.896C415.112 78.448 414.568 78.224 414.184 78.224C413.864 78.224 413.624 78.4 413.464 78.752C413.336 79.104 413.224 79.632 413.128 80.336H412.024C412.088 79.664 412.12 78.88 412.12 77.984C412.152 77.056 412.168 75.856 412.168 74.384C412.2 72.912 412.216 71.056 412.216 68.816H413.32C413.448 70.736 413.8 72.528 414.376 74.192C414.984 75.856 415.896 77.2 417.112 78.224C418.36 79.216 420.008 79.712 422.056 79.712C423.112 79.712 424.104 79.504 425.032 79.088C425.992 78.64 426.776 77.952 427.384 77.024C427.992 76.064 428.296 74.832 428.296 73.328C428.296 72.016 427.976 70.88 427.336 69.92C426.728 68.928 425.864 68.016 424.744 67.184C423.624 66.32 422.312 65.44 420.808 64.544C419.304 63.616 417.896 62.672 416.584 61.712C415.272 60.752 414.216 59.648 413.416 58.4C412.648 57.12 412.264 55.584 412.264 53.792C412.264 51.904 412.68 50.352 413.512 49.136C414.376 47.888 415.496 46.976 416.872 46.4C418.248 45.792 419.72 45.488 421.288 45.488ZM473.898 46.016C473.77 47.232 473.674 48.416 473.61 49.568C473.578 50.688 473.562 51.552 473.562 52.16C473.562 52.928 473.578 53.648 473.61 54.32C473.642 54.992 473.674 55.584 473.706 56.096H472.602C472.378 53.856 472.074 52.096 471.69 50.816C471.306 49.504 470.634 48.56 469.674 47.984C468.714 47.408 467.226 47.12 465.21 47.12H462.618V74.432C462.618 75.712 462.73 76.672 462.954 77.312C463.21 77.952 463.69 78.384 464.394 78.608C465.098 78.832 466.122 78.976 467.466 79.04V80C466.634 79.936 465.578 79.904 464.298 79.904C463.018 79.872 461.722 79.856 460.41 79.856C458.97 79.856 457.61 79.872 456.33 79.904C455.082 79.904 454.074 79.936 453.306 80V79.04C454.65 78.976 455.674 78.832 456.378 78.608C457.082 78.384 457.546 77.952 457.77 77.312C458.026 76.672 458.154 75.712 458.154 74.432V47.12H455.562C453.578 47.12 452.09 47.408 451.098 47.984C450.138 48.56 449.466 49.504 449.082 50.816C448.698 52.096 448.394 53.856 448.17 56.096H447.066C447.13 55.584 447.162 54.992 447.162 54.32C447.194 53.648 447.21 52.928 447.21 52.16C447.21 51.552 447.178 50.688 447.114 49.568C447.082 48.416 447.002 47.232 446.874 46.016C448.218 46.048 449.674 46.08 451.242 46.112C452.842 46.144 454.442 46.16 456.042 46.16C457.642 46.16 459.098 46.16 460.41 46.16C461.722 46.16 463.162 46.16 464.73 46.16C466.33 46.16 467.93 46.144 469.53 46.112C471.13 46.08 472.586 46.048 473.898 46.016ZM517.294 46.016V46.976C516.206 47.008 515.374 47.168 514.798 47.456C514.254 47.744 513.886 48.208 513.694 48.848C513.502 49.488 513.406 50.4 513.406 51.584V66.032C513.406 68.272 513.262 70.224 512.974 71.888C512.686 73.552 512.174 74.992 511.438 76.208C510.638 77.552 509.47 78.64 507.934 79.472C506.398 80.272 504.638 80.672 502.654 80.672C501.118 80.672 499.646 80.48 498.238 80.096C496.862 79.744 495.646 79.072 494.59 78.08C493.662 77.184 492.926 76.24 492.382 75.248C491.87 74.256 491.518 73.04 491.326 71.6C491.134 70.16 491.038 68.352 491.038 66.176V51.104C491.038 49.92 490.942 49.056 490.75 48.512C490.558 47.936 490.174 47.552 489.598 47.36C489.054 47.136 488.238 47.008 487.15 46.976V46.016C487.822 46.048 488.702 46.08 489.79 46.112C490.878 46.144 492.046 46.16 493.294 46.16C494.414 46.16 495.518 46.144 496.606 46.112C497.726 46.08 498.654 46.048 499.39 46.016V46.976C498.302 47.008 497.47 47.136 496.894 47.36C496.35 47.552 495.982 47.936 495.79 48.512C495.598 49.056 495.502 49.92 495.502 51.104V66.992C495.502 68.624 495.582 70.176 495.742 71.648C495.902 73.088 496.222 74.368 496.702 75.488C497.214 76.576 497.982 77.44 499.006 78.08C500.03 78.688 501.39 78.992 503.086 78.992C505.518 78.992 507.39 78.464 508.702 77.408C510.046 76.32 510.974 74.832 511.486 72.944C512.03 71.056 512.302 68.928 512.302 66.56V51.584C512.302 50.4 512.158 49.488 511.87 48.848C511.614 48.208 511.166 47.744 510.526 47.456C509.886 47.168 509.022 47.008 507.934 46.976V46.016C508.51 46.048 509.262 46.08 510.19 46.112C511.15 46.144 512.03 46.16 512.83 46.16C513.662 46.16 514.478 46.144 515.278 46.112C516.11 46.08 516.782 46.048 517.294 46.016ZM544.253 46.016C549.981 46.016 554.237 47.456 557.021 50.336C559.805 53.184 561.197 57.28 561.197 62.624C561.197 66.112 560.509 69.168 559.133 71.792C557.789 74.384 555.821 76.4 553.229 77.84C550.637 79.28 547.501 80 543.821 80C543.341 80 542.701 79.984 541.901 79.952C541.101 79.92 540.269 79.904 539.405 79.904C538.573 79.872 537.805 79.856 537.101 79.856C535.981 79.856 534.877 79.872 533.789 79.904C532.701 79.904 531.821 79.936 531.149 80V79.04C532.237 78.976 533.053 78.848 533.597 78.656C534.173 78.464 534.557 78.08 534.749 77.504C534.941 76.928 535.037 76.064 535.037 74.912V51.104C535.037 49.92 534.941 49.056 534.749 48.512C534.557 47.936 534.173 47.552 533.597 47.36C533.053 47.136 532.237 47.008 531.149 46.976V46.016C531.821 46.048 532.701 46.096 533.789 46.16C534.877 46.192 535.949 46.192 537.005 46.16C538.125 46.128 539.389 46.096 540.797 46.064C542.205 46.032 543.357 46.016 544.253 46.016ZM543.053 46.88C541.581 46.88 540.621 47.152 540.173 47.696C539.725 48.24 539.501 49.344 539.501 51.008V75.008C539.501 76.672 539.725 77.776 540.173 78.32C540.653 78.864 541.629 79.136 543.101 79.136C546.589 79.136 549.293 78.512 551.213 77.264C553.133 75.984 554.477 74.128 555.245 71.696C556.013 69.264 556.397 66.304 556.397 62.816C556.397 59.232 555.965 56.272 555.101 53.936C554.269 51.568 552.877 49.808 550.925 48.656C549.005 47.472 546.381 46.88 543.053 46.88ZM588.215 46.016V46.976C587.127 47.008 586.295 47.136 585.719 47.36C585.175 47.552 584.807 47.936 584.615 48.512C584.423 49.056 584.327 49.92 584.327 51.104V74.912C584.327 76.064 584.423 76.928 584.615 77.504C584.807 78.08 585.175 78.464 585.719 78.656C586.295 78.848 587.127 78.976 588.215 79.04V80C587.479 79.936 586.551 79.904 585.431 79.904C584.343 79.872 583.239 79.856 582.119 79.856C580.871 79.856 579.703 79.872 578.615 79.904C577.527 79.904 576.647 79.936 575.975 80V79.04C577.063 78.976 577.879 78.848 578.423 78.656C578.999 78.464 579.383 78.08 579.575 77.504C579.767 76.928 579.863 76.064 579.863 74.912V51.104C579.863 49.92 579.767 49.056 579.575 48.512C579.383 47.936 578.999 47.552 578.423 47.36C577.879 47.136 577.063 47.008 575.975 46.976V46.016C576.647 46.048 577.527 46.08 578.615 46.112C579.703 46.144 580.871 46.16 582.119 46.16C583.239 46.16 584.343 46.144 585.431 46.112C586.551 46.08 587.479 46.048 588.215 46.016ZM618.217 45.344C621.257 45.344 623.913 46.032 626.185 47.408C628.489 48.784 630.265 50.768 631.513 53.36C632.793 55.92 633.433 59.04 633.433 62.72C633.433 66.304 632.777 69.44 631.465 72.128C630.185 74.816 628.393 76.912 626.089 78.416C623.785 79.92 621.145 80.672 618.169 80.672C615.129 80.672 612.457 79.984 610.153 78.608C607.881 77.232 606.105 75.248 604.825 72.656C603.577 70.064 602.953 66.944 602.953 63.296C602.953 59.712 603.609 56.576 604.921 53.888C606.233 51.2 608.025 49.104 610.297 47.6C612.601 46.096 615.241 45.344 618.217 45.344ZM618.025 46.208C615.945 46.208 614.137 46.928 612.601 48.368C611.065 49.808 609.865 51.792 609.001 54.32C608.169 56.848 607.753 59.776 607.753 63.104C607.753 66.496 608.217 69.456 609.145 71.984C610.105 74.48 611.385 76.416 612.985 77.792C614.617 79.136 616.409 79.808 618.361 79.808C620.441 79.808 622.249 79.088 623.785 77.648C625.321 76.208 626.505 74.224 627.337 71.696C628.201 69.136 628.633 66.208 628.633 62.912C628.633 59.488 628.153 56.528 627.193 54.032C626.265 51.536 625.001 49.616 623.401 48.272C621.801 46.896 620.009 46.208 618.025 46.208Z" fill="#1B4332"/>
<rect x="384" y="26" width="2" height="68" fill="#C9A84C"/>
<path d="M55.888 46.016V46.976C54.8 47.008 53.968 47.136 53.392 47.36C52.848 47.552 52.48 47.936 52.288 48.512C52.096 49.056 52 49.92 52 51.104V75.296C52 76.32 52.08 77.104 52.24 77.648C52.432 78.16 52.768 78.496 53.248 78.656C53.728 78.816 54.416 78.896 55.312 78.896H58.048C59.296 78.896 60.384 78.672 61.312 78.224C62.272 77.776 63.104 77.12 63.808 76.256C64.512 75.392 65.088 74.336 65.536 73.088C65.984 71.808 66.304 70.368 66.496 68.768H67.6C67.504 69.824 67.456 71.2 67.456 72.896C67.456 73.6 67.472 74.608 67.504 75.92C67.568 77.232 67.664 78.592 67.792 80C66.16 79.936 64.32 79.904 62.272 79.904C60.224 79.872 58.4 79.856 56.8 79.856C56.032 79.856 55.056 79.856 53.872 79.856C52.688 79.856 51.392 79.872 49.984 79.904C48.608 79.904 47.2 79.92 45.76 79.952C44.352 79.952 43.008 79.968 41.728 80V79.04C42.784 78.976 43.568 78.848 44.08 78.656C44.624 78.464 44.976 78.08 45.136 77.504C45.328 76.928 45.424 76.064 45.424 74.912V51.104C45.424 49.92 45.328 49.056 45.136 48.512C44.976 47.936 44.624 47.552 44.08 47.36C43.568 47.136 42.784 47.008 41.728 46.976V46.016C42.528 46.048 43.552 46.08 44.8 46.112C46.048 46.144 47.392 46.16 48.832 46.16C50.144 46.16 51.44 46.144 52.72 46.112C54 46.08 55.056 46.048 55.888 46.016ZM104.394 46.016C104.266 47.328 104.17 48.608 104.106 49.856C104.074 51.072 104.058 52 104.058 52.64C104.058 53.248 104.074 53.84 104.106 54.416C104.138 54.96 104.17 55.424 104.202 55.808H103.098C102.842 53.6 102.426 51.872 101.85 50.624C101.274 49.344 100.49 48.448 99.4979 47.936C98.5379 47.392 97.2739 47.12 95.7059 47.12H93.0659C92.1059 47.12 91.3699 47.2 90.8579 47.36C90.3459 47.52 89.9939 47.856 89.8019 48.368C89.6419 48.88 89.5619 49.664 89.5619 50.72V75.296C89.5619 76.32 89.6419 77.104 89.8019 77.648C89.9939 78.16 90.3459 78.496 90.8579 78.656C91.3699 78.816 92.1059 78.896 93.0659 78.896H95.8019C97.4339 78.896 98.7939 78.592 99.8819 77.984C101.002 77.376 101.898 76.384 102.57 75.008C103.242 73.6 103.738 71.68 104.058 69.248H105.162C105.066 70.24 105.018 71.52 105.018 73.088C105.018 73.76 105.034 74.736 105.066 76.016C105.13 77.296 105.226 78.624 105.354 80C103.722 79.936 101.882 79.904 99.8339 79.904C97.7859 79.872 95.9619 79.856 94.3619 79.856C93.6259 79.856 92.6499 79.856 91.4339 79.856C90.2499 79.856 88.9539 79.872 87.5459 79.904C86.1699 79.904 84.7619 79.92 83.3219 79.952C81.9139 79.952 80.5699 79.968 79.2899 80V79.04C80.3459 78.976 81.1299 78.848 81.6419 78.656C82.1859 78.464 82.5379 78.08 82.6979 77.504C82.8899 76.928 82.9859 76.064 82.9859 74.912V51.104C82.9859 49.92 82.8899 49.056 82.6979 48.512C82.5379 47.936 82.1859 47.552 81.6419 47.36C81.1299 47.136 80.3459 47.008 79.2899 46.976V46.016C80.5699 46.048 81.9139 46.08 83.3219 46.112C84.7619 46.112 86.1699 46.128 87.5459 46.16C88.9539 46.16 90.2499 46.16 91.4339 46.16C92.6499 46.16 93.6259 46.16 94.3619 46.16C95.8339 46.16 97.4979 46.16 99.3539 46.16C101.242 46.128 102.922 46.08 104.394 46.016ZM96.6659 62.432C96.6659 62.432 96.6659 62.592 96.6659 62.912C96.6659 63.232 96.6659 63.392 96.6659 63.392H88.1219C88.1219 63.392 88.1219 63.232 88.1219 62.912C88.1219 62.592 88.1219 62.432 88.1219 62.432H96.6659ZM98.0579 56.096C97.9299 57.92 97.8659 59.312 97.8659 60.272C97.8979 61.232 97.9139 62.112 97.9139 62.912C97.9139 63.712 97.9299 64.592 97.9619 65.552C97.9939 66.512 98.0739 67.904 98.2019 69.728H97.0979C96.9379 68.64 96.6819 67.616 96.3299 66.656C96.0099 65.664 95.4819 64.88 94.7459 64.304C94.0419 63.696 93.0179 63.392 91.6739 63.392V62.432C92.6659 62.432 93.4659 62.224 94.0739 61.808C94.7139 61.392 95.2259 60.864 95.6099 60.224C95.9939 59.552 96.2819 58.864 96.4739 58.16C96.6979 57.424 96.8579 56.736 96.9539 56.096H98.0579ZM129.354 45.44C131.146 45.44 132.522 45.632 133.482 46.016C134.442 46.4 135.274 46.816 135.978 47.264C136.362 47.488 136.666 47.664 136.89 47.792C137.146 47.888 137.386 47.936 137.61 47.936C137.93 47.936 138.154 47.76 138.282 47.408C138.442 47.056 138.57 46.528 138.666 45.824H139.77C139.738 46.432 139.69 47.136 139.626 47.936C139.594 48.736 139.562 49.808 139.53 51.152C139.53 52.464 139.53 54.208 139.53 56.384H138.426C138.33 54.752 137.962 53.184 137.322 51.68C136.714 50.176 135.834 48.944 134.682 47.984C133.562 46.992 132.122 46.496 130.362 46.496C128.794 46.496 127.482 46.96 126.426 47.888C125.402 48.816 124.89 50.064 124.89 51.632C124.89 52.976 125.226 54.112 125.898 55.04C126.57 55.936 127.514 56.816 128.73 57.68C129.978 58.512 131.45 59.472 133.146 60.56C134.714 61.584 136.122 62.608 137.37 63.632C138.618 64.624 139.594 65.728 140.298 66.944C141.034 68.16 141.402 69.648 141.402 71.408C141.402 73.488 140.89 75.216 139.866 76.592C138.842 77.968 137.466 78.992 135.738 79.664C134.01 80.336 132.122 80.672 130.074 80.672C128.186 80.672 126.682 80.48 125.562 80.096C124.474 79.712 123.53 79.312 122.73 78.896C122.026 78.448 121.482 78.224 121.098 78.224C120.778 78.224 120.538 78.4 120.378 78.752C120.25 79.104 120.138 79.632 120.042 80.336H118.938C119.002 79.6 119.034 78.736 119.034 77.744C119.066 76.752 119.082 75.472 119.082 73.904C119.114 72.304 119.13 70.288 119.13 67.856H120.234C120.362 69.904 120.714 71.824 121.29 73.616C121.898 75.376 122.81 76.8 124.026 77.888C125.274 78.976 126.922 79.52 128.97 79.52C130.09 79.52 131.098 79.328 131.994 78.944C132.922 78.528 133.658 77.904 134.202 77.072C134.746 76.208 135.018 75.12 135.018 73.808C135.018 72.496 134.714 71.344 134.106 70.352C133.498 69.36 132.65 68.432 131.562 67.568C130.474 66.704 129.194 65.824 127.722 64.928C126.218 63.968 124.81 62.992 123.498 62C122.186 61.008 121.13 59.888 120.33 58.64C119.562 57.36 119.178 55.824 119.178 54.032C119.178 52.048 119.658 50.432 120.618 49.184C121.578 47.904 122.826 46.96 124.362 46.352C125.93 45.744 127.594 45.44 129.354 45.44ZM168.058 46.016V46.976C166.97 47.008 166.138 47.136 165.562 47.36C165.018 47.552 164.65 47.936 164.458 48.512C164.266 49.056 164.17 49.92 164.17 51.104V75.296C164.17 76.32 164.25 77.104 164.41 77.648C164.602 78.16 164.938 78.496 165.418 78.656C165.898 78.816 166.586 78.896 167.482 78.896H170.218C171.466 78.896 172.554 78.672 173.482 78.224C174.442 77.776 175.274 77.12 175.978 76.256C176.682 75.392 177.258 74.336 177.706 73.088C178.154 71.808 178.474 70.368 178.666 68.768H179.77C179.674 69.824 179.626 71.2 179.626 72.896C179.626 73.6 179.642 74.608 179.674 75.92C179.738 77.232 179.834 78.592 179.962 80C178.33 79.936 176.49 79.904 174.442 79.904C172.394 79.872 170.57 79.856 168.97 79.856C168.202 79.856 167.226 79.856 166.042 79.856C164.858 79.856 163.562 79.872 162.154 79.904C160.778 79.904 159.37 79.92 157.93 79.952C156.522 79.952 155.178 79.968 153.898 80V79.04C154.954 78.976 155.738 78.848 156.25 78.656C156.794 78.464 157.146 78.08 157.306 77.504C157.498 76.928 157.594 76.064 157.594 74.912V51.104C157.594 49.92 157.498 49.056 157.306 48.512C157.146 47.936 156.794 47.552 156.25 47.36C155.738 47.136 154.954 47.008 153.898 46.976V46.016C154.698 46.048 155.722 46.08 156.97 46.112C158.218 46.144 159.562 46.16 161.002 46.16C162.314 46.16 163.61 46.144 164.89 46.112C166.17 46.08 167.226 46.048 168.058 46.016ZM205.428 46.016V46.976C204.404 47.008 203.62 47.136 203.076 47.36C202.564 47.552 202.212 47.936 202.02 48.512C201.828 49.056 201.732 49.92 201.732 51.104V74.912C201.732 76.064 201.828 76.928 202.02 77.504C202.212 78.08 202.564 78.464 203.076 78.656C203.62 78.848 204.404 78.976 205.428 79.04V80C204.628 79.936 203.604 79.904 202.356 79.904C201.108 79.872 199.844 79.856 198.564 79.856C197.124 79.856 195.78 79.872 194.532 79.904C193.284 79.904 192.26 79.936 191.46 80V79.04C192.516 78.976 193.3 78.848 193.812 78.656C194.356 78.464 194.708 78.08 194.868 77.504C195.06 76.928 195.156 76.064 195.156 74.912V51.104C195.156 49.92 195.06 49.056 194.868 48.512C194.708 47.936 194.356 47.552 193.812 47.36C193.3 47.136 192.516 47.008 191.46 46.976V46.016C192.26 46.048 193.284 46.08 194.532 46.112C195.78 46.144 197.124 46.16 198.564 46.16C199.844 46.16 201.108 46.144 202.356 46.112C203.604 46.08 204.628 46.048 205.428 46.016ZM242.688 46.016C242.56 47.328 242.464 48.608 242.4 49.856C242.368 51.072 242.352 52 242.352 52.64C242.352 53.248 242.368 53.84 242.4 54.416C242.432 54.96 242.464 55.424 242.496 55.808H241.392C241.136 53.6 240.72 51.872 240.144 50.624C239.568 49.344 238.784 48.448 237.792 47.936C236.832 47.392 235.568 47.12 234 47.12H231.36C230.4 47.12 229.664 47.2 229.152 47.36C228.64 47.52 228.288 47.856 228.096 48.368C227.936 48.88 227.856 49.664 227.856 50.72V75.296C227.856 76.32 227.936 77.104 228.096 77.648C228.288 78.16 228.64 78.496 229.152 78.656C229.664 78.816 230.4 78.896 231.36 78.896H234.096C235.728 78.896 237.088 78.592 238.176 77.984C239.296 77.376 240.192 76.384 240.864 75.008C241.536 73.6 242.032 71.68 242.352 69.248H243.456C243.36 70.24 243.312 71.52 243.312 73.088C243.312 73.76 243.328 74.736 243.36 76.016C243.424 77.296 243.52 78.624 243.648 80C242.016 79.936 240.176 79.904 238.128 79.904C236.08 79.872 234.256 79.856 232.656 79.856C231.92 79.856 230.944 79.856 229.728 79.856C228.544 79.856 227.248 79.872 225.84 79.904C224.464 79.904 223.056 79.92 221.616 79.952C220.208 79.952 218.864 79.968 217.584 80V79.04C218.64 78.976 219.424 78.848 219.936 78.656C220.48 78.464 220.832 78.08 220.992 77.504C221.184 76.928 221.28 76.064 221.28 74.912V51.104C221.28 49.92 221.184 49.056 220.992 48.512C220.832 47.936 220.48 47.552 219.936 47.36C219.424 47.136 218.64 47.008 217.584 46.976V46.016C218.864 46.048 220.208 46.08 221.616 46.112C223.056 46.112 224.464 46.128 225.84 46.16C227.248 46.16 228.544 46.16 229.728 46.16C230.944 46.16 231.92 46.16 232.656 46.16C234.128 46.16 235.792 46.16 237.648 46.16C239.536 46.128 241.216 46.08 242.688 46.016ZM234.96 62.432C234.96 62.432 234.96 62.592 234.96 62.912C234.96 63.232 234.96 63.392 234.96 63.392H226.416C226.416 63.392 226.416 63.232 226.416 62.912C226.416 62.592 226.416 62.432 226.416 62.432H234.96ZM236.352 56.096C236.224 57.92 236.16 59.312 236.16 60.272C236.192 61.232 236.208 62.112 236.208 62.912C236.208 63.712 236.224 64.592 236.256 65.552C236.288 66.512 236.368 67.904 236.496 69.728H235.392C235.232 68.64 234.976 67.616 234.624 66.656C234.304 65.664 233.776 64.88 233.04 64.304C232.336 63.696 231.312 63.392 229.968 63.392V62.432C230.96 62.432 231.76 62.224 232.368 61.808C233.008 61.392 233.52 60.864 233.904 60.224C234.288 59.552 234.576 58.864 234.768 58.16C234.992 57.424 235.152 56.736 235.248 56.096H236.352ZM287.773 45.44C289.565 45.44 290.941 45.632 291.901 46.016C292.861 46.4 293.693 46.816 294.397 47.264C294.781 47.488 295.085 47.664 295.309 47.792C295.565 47.888 295.805 47.936 296.029 47.936C296.349 47.936 296.573 47.76 296.701 47.408C296.861 47.056 296.989 46.528 297.085 45.824H298.189C298.157 46.432 298.109 47.136 298.045 47.936C298.013 48.736 297.981 49.808 297.949 51.152C297.949 52.464 297.949 54.208 297.949 56.384H296.845C296.749 54.752 296.381 53.184 295.741 51.68C295.133 50.176 294.253 48.944 293.101 47.984C291.981 46.992 290.541 46.496 288.781 46.496C287.213 46.496 285.901 46.96 284.845 47.888C283.821 48.816 283.309 50.064 283.309 51.632C283.309 52.976 283.645 54.112 284.317 55.04C284.989 55.936 285.933 56.816 287.149 57.68C288.397 58.512 289.869 59.472 291.565 60.56C293.133 61.584 294.541 62.608 295.789 63.632C297.037 64.624 298.013 65.728 298.717 66.944C299.453 68.16 299.821 69.648 299.821 71.408C299.821 73.488 299.309 75.216 298.285 76.592C297.261 77.968 295.885 78.992 294.157 79.664C292.429 80.336 290.541 80.672 288.493 80.672C286.605 80.672 285.101 80.48 283.981 80.096C282.893 79.712 281.949 79.312 281.149 78.896C280.445 78.448 279.901 78.224 279.517 78.224C279.197 78.224 278.957 78.4 278.797 78.752C278.669 79.104 278.557 79.632 278.461 80.336H277.357C277.421 79.6 277.453 78.736 277.453 77.744C277.485 76.752 277.501 75.472 277.501 73.904C277.533 72.304 277.549 70.288 277.549 67.856H278.653C278.781 69.904 279.133 71.824 279.709 73.616C280.317 75.376 281.229 76.8 282.445 77.888C283.693 78.976 285.341 79.52 287.389 79.52C288.509 79.52 289.517 79.328 290.413 78.944C291.341 78.528 292.077 77.904 292.621 77.072C293.165 76.208 293.437 75.12 293.437 73.808C293.437 72.496 293.133 71.344 292.525 70.352C291.917 69.36 291.069 68.432 289.981 67.568C288.893 66.704 287.613 65.824 286.141 64.928C284.637 63.968 283.229 62.992 281.917 62C280.605 61.008 279.549 59.888 278.749 58.64C277.981 57.36 277.597 55.824 277.597 54.032C277.597 52.048 278.077 50.432 279.037 49.184C279.997 47.904 281.245 46.96 282.781 46.352C284.349 45.744 286.013 45.44 287.773 45.44ZM340.637 46.016C340.509 47.488 340.413 48.928 340.349 50.336C340.317 51.712 340.301 52.768 340.301 53.504C340.301 54.24 340.317 54.928 340.349 55.568C340.381 56.208 340.413 56.768 340.445 57.248H339.341C338.893 54.688 338.349 52.688 337.709 51.248C337.069 49.776 336.221 48.72 335.165 48.08C334.141 47.44 332.781 47.12 331.085 47.12H329.549V74.48C329.549 75.792 329.661 76.768 329.885 77.408C330.141 78.048 330.637 78.48 331.373 78.704C332.109 78.896 333.181 79.008 334.589 79.04V80C333.629 79.936 332.381 79.904 330.845 79.904C329.309 79.872 327.741 79.856 326.141 79.856C324.477 79.856 322.909 79.872 321.437 79.904C319.997 79.904 318.829 79.936 317.933 80V79.04C319.309 79.008 320.365 78.896 321.101 78.704C321.837 78.48 322.333 78.048 322.589 77.408C322.845 76.768 322.973 75.792 322.973 74.48V47.12H321.389C319.725 47.12 318.365 47.44 317.309 48.08C316.253 48.72 315.405 49.776 314.765 51.248C314.125 52.688 313.597 54.688 313.181 57.248H312.077C312.141 56.768 312.173 56.208 312.173 55.568C312.205 54.928 312.221 54.24 312.221 53.504C312.221 52.768 312.189 51.712 312.125 50.336C312.093 48.928 312.013 47.488 311.885 46.016C313.293 46.048 314.845 46.08 316.541 46.112C318.237 46.144 319.933 46.16 321.629 46.16C323.325 46.16 324.877 46.16 326.285 46.16C327.661 46.16 329.197 46.16 330.893 46.16C332.589 46.16 334.285 46.144 335.981 46.112C337.677 46.08 339.229 46.048 340.637 46.016ZM354.487 73.664C355.575 73.664 356.471 73.984 357.175 74.624C357.879 75.264 358.231 76.112 358.231 77.168C358.231 78.224 357.879 79.072 357.175 79.712C356.471 80.352 355.575 80.672 354.487 80.672C353.367 80.672 352.455 80.352 351.751 79.712C351.079 79.072 350.743 78.224 350.743 77.168C350.743 76.112 351.079 75.264 351.751 74.624C352.455 73.984 353.367 73.664 354.487 73.664Z" fill="#1B4332"/>
</svg>
