<svg width="493" height="215" viewBox="0 0 493 215" fill="none" xmlns="http://www.w3.org/2000/svg">
<rect width="493" height="215" rx="12" fill="#1B4332"/>
<path d="M165.168 143.868C166.101 143.868 166.811 143.98 167.296 144.204C167.781 144.409 168.211 144.643 168.584 144.904C168.808 145.035 168.985 145.137 169.116 145.212C169.265 145.268 169.405 145.296 169.536 145.296C169.723 145.296 169.853 145.193 169.928 144.988C170.021 144.783 170.096 144.475 170.152 144.064H170.796C170.777 144.381 170.749 144.764 170.712 145.212C170.693 145.641 170.675 146.22 170.656 146.948C170.656 147.657 170.656 148.6 170.656 149.776H170.012C169.956 148.88 169.76 148.021 169.424 147.2C169.088 146.379 168.593 145.707 167.94 145.184C167.305 144.661 166.465 144.4 165.42 144.4C164.431 144.4 163.609 144.699 162.956 145.296C162.321 145.893 162.004 146.677 162.004 147.648C162.004 148.488 162.219 149.197 162.648 149.776C163.077 150.336 163.647 150.849 164.356 151.316C165.084 151.764 165.868 152.249 166.708 152.772C167.679 153.369 168.537 153.967 169.284 154.564C170.049 155.143 170.647 155.787 171.076 156.496C171.524 157.205 171.748 158.064 171.748 159.072C171.748 160.267 171.477 161.256 170.936 162.04C170.395 162.824 169.676 163.412 168.78 163.804C167.884 164.196 166.895 164.392 165.812 164.392C164.823 164.392 164.039 164.28 163.46 164.056C162.881 163.832 162.387 163.599 161.976 163.356C161.565 163.095 161.248 162.964 161.024 162.964C160.837 162.964 160.697 163.067 160.604 163.272C160.529 163.477 160.464 163.785 160.408 164.196H159.764C159.801 163.804 159.82 163.347 159.82 162.824C159.839 162.283 159.848 161.583 159.848 160.724C159.867 159.865 159.876 158.783 159.876 157.476H160.52C160.595 158.596 160.8 159.641 161.136 160.612C161.491 161.583 162.023 162.367 162.732 162.964C163.46 163.543 164.421 163.832 165.616 163.832C166.232 163.832 166.811 163.711 167.352 163.468C167.912 163.207 168.369 162.805 168.724 162.264C169.079 161.704 169.256 160.985 169.256 160.108C169.256 159.343 169.069 158.68 168.696 158.12C168.341 157.541 167.837 157.009 167.184 156.524C166.531 156.02 165.765 155.507 164.888 154.984C164.011 154.443 163.189 153.892 162.424 153.332C161.659 152.772 161.043 152.128 160.576 151.4C160.128 150.653 159.904 149.757 159.904 148.712C159.904 147.611 160.147 146.705 160.632 145.996C161.136 145.268 161.789 144.736 162.592 144.4C163.395 144.045 164.253 143.868 165.168 143.868ZM205.097 144.176C205.022 144.885 204.966 145.576 204.929 146.248C204.91 146.901 204.901 147.405 204.901 147.76C204.901 148.208 204.91 148.628 204.929 149.02C204.948 149.412 204.966 149.757 204.985 150.056H204.341C204.21 148.749 204.033 147.723 203.809 146.976C203.585 146.211 203.193 145.66 202.633 145.324C202.073 144.988 201.205 144.82 200.029 144.82H198.517V160.752C198.517 161.499 198.582 162.059 198.713 162.432C198.862 162.805 199.142 163.057 199.553 163.188C199.964 163.319 200.561 163.403 201.345 163.44V164C200.86 163.963 200.244 163.944 199.497 163.944C198.75 163.925 197.994 163.916 197.229 163.916C196.389 163.916 195.596 163.925 194.849 163.944C194.121 163.944 193.533 163.963 193.085 164V163.44C193.869 163.403 194.466 163.319 194.877 163.188C195.288 163.057 195.558 162.805 195.689 162.432C195.838 162.059 195.913 161.499 195.913 160.752V144.82H194.401C193.244 144.82 192.376 144.988 191.797 145.324C191.237 145.66 190.845 146.211 190.621 146.976C190.397 147.723 190.22 148.749 190.089 150.056H189.445C189.482 149.757 189.501 149.412 189.501 149.02C189.52 148.628 189.529 148.208 189.529 147.76C189.529 147.405 189.51 146.901 189.473 146.248C189.454 145.576 189.408 144.885 189.333 144.176C190.117 144.195 190.966 144.213 191.881 144.232C192.814 144.251 193.748 144.26 194.681 144.26C195.614 144.26 196.464 144.26 197.229 144.26C197.994 144.26 198.834 144.26 199.749 144.26C200.682 144.26 201.616 144.251 202.549 144.232C203.482 144.213 204.332 144.195 205.097 144.176ZM239.652 144.176V144.736C239.017 144.755 238.532 144.848 238.196 145.016C237.878 145.184 237.664 145.455 237.552 145.828C237.44 146.201 237.384 146.733 237.384 147.424V155.852C237.384 157.159 237.3 158.297 237.132 159.268C236.964 160.239 236.665 161.079 236.236 161.788C235.769 162.572 235.088 163.207 234.192 163.692C233.296 164.159 232.269 164.392 231.112 164.392C230.216 164.392 229.357 164.28 228.536 164.056C227.733 163.851 227.024 163.459 226.408 162.88C225.866 162.357 225.437 161.807 225.12 161.228C224.821 160.649 224.616 159.94 224.504 159.1C224.392 158.26 224.336 157.205 224.336 155.936V147.144C224.336 146.453 224.28 145.949 224.168 145.632C224.056 145.296 223.832 145.072 223.496 144.96C223.178 144.829 222.702 144.755 222.068 144.736V144.176C222.46 144.195 222.973 144.213 223.608 144.232C224.242 144.251 224.924 144.26 225.652 144.26C226.305 144.26 226.949 144.251 227.584 144.232C228.237 144.213 228.778 144.195 229.208 144.176V144.736C228.573 144.755 228.088 144.829 227.752 144.96C227.434 145.072 227.22 145.296 227.108 145.632C226.996 145.949 226.94 146.453 226.94 147.144V156.412C226.94 157.364 226.986 158.269 227.08 159.128C227.173 159.968 227.36 160.715 227.64 161.368C227.938 162.003 228.386 162.507 228.984 162.88C229.581 163.235 230.374 163.412 231.364 163.412C232.782 163.412 233.874 163.104 234.64 162.488C235.424 161.853 235.965 160.985 236.264 159.884C236.581 158.783 236.74 157.541 236.74 156.16V147.424C236.74 146.733 236.656 146.201 236.488 145.828C236.338 145.455 236.077 145.184 235.704 145.016C235.33 144.848 234.826 144.755 234.192 144.736V144.176C234.528 144.195 234.966 144.213 235.508 144.232C236.068 144.251 236.581 144.26 237.048 144.26C237.533 144.26 238.009 144.251 238.476 144.232C238.961 144.213 239.353 144.195 239.652 144.176ZM264.618 144.176C267.959 144.176 270.442 145.016 272.066 146.696C273.69 148.357 274.502 150.747 274.502 153.864C274.502 155.899 274.1 157.681 273.298 159.212C272.514 160.724 271.366 161.9 269.854 162.74C268.342 163.58 266.512 164 264.366 164C264.086 164 263.712 163.991 263.246 163.972C262.779 163.953 262.294 163.944 261.79 163.944C261.304 163.925 260.856 163.916 260.446 163.916C259.792 163.916 259.148 163.925 258.514 163.944C257.879 163.944 257.366 163.963 256.974 164V163.44C257.608 163.403 258.084 163.328 258.402 163.216C258.738 163.104 258.962 162.88 259.074 162.544C259.186 162.208 259.242 161.704 259.242 161.032V147.144C259.242 146.453 259.186 145.949 259.074 145.632C258.962 145.296 258.738 145.072 258.402 144.96C258.084 144.829 257.608 144.755 256.974 144.736V144.176C257.366 144.195 257.879 144.223 258.514 144.26C259.148 144.279 259.774 144.279 260.39 144.26C261.043 144.241 261.78 144.223 262.602 144.204C263.423 144.185 264.095 144.176 264.618 144.176ZM263.918 144.68C263.059 144.68 262.499 144.839 262.238 145.156C261.976 145.473 261.846 146.117 261.846 147.088V161.088C261.846 162.059 261.976 162.703 262.238 163.02C262.518 163.337 263.087 163.496 263.946 163.496C265.98 163.496 267.558 163.132 268.678 162.404C269.798 161.657 270.582 160.575 271.03 159.156C271.478 157.737 271.702 156.011 271.702 153.976C271.702 151.885 271.45 150.159 270.946 148.796C270.46 147.415 269.648 146.388 268.51 145.716C267.39 145.025 265.859 144.68 263.918 144.68ZM299.502 144.176V144.736C298.867 144.755 298.382 144.829 298.046 144.96C297.729 145.072 297.514 145.296 297.402 145.632C297.29 145.949 297.234 146.453 297.234 147.144V161.032C297.234 161.704 297.29 162.208 297.402 162.544C297.514 162.88 297.729 163.104 298.046 163.216C298.382 163.328 298.867 163.403 299.502 163.44V164C299.073 163.963 298.531 163.944 297.878 163.944C297.243 163.925 296.599 163.916 295.946 163.916C295.218 163.916 294.537 163.925 293.902 163.944C293.267 163.944 292.754 163.963 292.362 164V163.44C292.997 163.403 293.473 163.328 293.79 163.216C294.126 163.104 294.35 162.88 294.462 162.544C294.574 162.208 294.63 161.704 294.63 161.032V147.144C294.63 146.453 294.574 145.949 294.462 145.632C294.35 145.296 294.126 145.072 293.79 144.96C293.473 144.829 292.997 144.755 292.362 144.736V144.176C292.754 144.195 293.267 144.213 293.902 144.232C294.537 144.251 295.218 144.26 295.946 144.26C296.599 144.26 297.243 144.251 297.878 144.232C298.531 144.213 299.073 144.195 299.502 144.176ZM326.243 143.784C328.017 143.784 329.566 144.185 330.891 144.988C332.235 145.791 333.271 146.948 333.999 148.46C334.746 149.953 335.119 151.773 335.119 153.92C335.119 156.011 334.737 157.84 333.971 159.408C333.225 160.976 332.179 162.199 330.835 163.076C329.491 163.953 327.951 164.392 326.215 164.392C324.442 164.392 322.883 163.991 321.539 163.188C320.214 162.385 319.178 161.228 318.431 159.716C317.703 158.204 317.339 156.384 317.339 154.256C317.339 152.165 317.722 150.336 318.487 148.768C319.253 147.2 320.298 145.977 321.623 145.1C322.967 144.223 324.507 143.784 326.243 143.784ZM326.131 144.288C324.918 144.288 323.863 144.708 322.967 145.548C322.071 146.388 321.371 147.545 320.867 149.02C320.382 150.495 320.139 152.203 320.139 154.144C320.139 156.123 320.41 157.849 320.951 159.324C321.511 160.78 322.258 161.909 323.191 162.712C324.143 163.496 325.189 163.888 326.327 163.888C327.541 163.888 328.595 163.468 329.491 162.628C330.387 161.788 331.078 160.631 331.563 159.156C332.067 157.663 332.319 155.955 332.319 154.032C332.319 152.035 332.039 150.308 331.479 148.852C330.938 147.396 330.201 146.276 329.267 145.492C328.334 144.689 327.289 144.288 326.131 144.288Z" fill="#DDD5C4"/>
<rect x="87" y="120" width="321" height="1.5" fill="#C9A84C"/>
<path d="M102.888 62.016V62.976C101.8 63.008 100.968 63.136 100.392 63.36C99.848 63.552 99.48 63.936 99.288 64.512C99.096 65.056 99 65.92 99 67.104V91.296C99 92.32 99.08 93.104 99.24 93.648C99.432 94.16 99.768 94.496 100.248 94.656C100.728 94.816 101.416 94.896 102.312 94.896H105.048C106.296 94.896 107.384 94.672 108.312 94.224C109.272 93.776 110.104 93.12 110.808 92.256C111.512 91.392 112.088 90.336 112.536 89.088C112.984 87.808 113.304 86.368 113.496 84.768H114.6C114.504 85.824 114.456 87.2 114.456 88.896C114.456 89.6 114.472 90.608 114.504 91.92C114.568 93.232 114.664 94.592 114.792 96C113.16 95.936 111.32 95.904 109.272 95.904C107.224 95.872 105.4 95.856 103.8 95.856C103.032 95.856 102.056 95.856 100.872 95.856C99.688 95.856 98.392 95.872 96.984 95.904C95.608 95.904 94.2 95.92 92.76 95.952C91.352 95.952 90.008 95.968 88.728 96V95.04C89.784 94.976 90.568 94.848 91.08 94.656C91.624 94.464 91.976 94.08 92.136 93.504C92.328 92.928 92.424 92.064 92.424 90.912V67.104C92.424 65.92 92.328 65.056 92.136 64.512C91.976 63.936 91.624 63.552 91.08 63.36C90.568 63.136 89.784 63.008 88.728 62.976V62.016C89.528 62.048 90.552 62.08 91.8 62.112C93.048 62.144 94.392 62.16 95.832 62.16C97.144 62.16 98.44 62.144 99.72 62.112C101 62.08 102.056 62.048 102.888 62.016ZM151.394 62.016C151.266 63.328 151.17 64.608 151.106 65.856C151.074 67.072 151.058 68 151.058 68.64C151.058 69.248 151.074 69.84 151.106 70.416C151.138 70.96 151.17 71.424 151.202 71.808H150.098C149.842 69.6 149.426 67.872 148.85 66.624C148.274 65.344 147.49 64.448 146.498 63.936C145.538 63.392 144.274 63.12 142.706 63.12H140.066C139.106 63.12 138.37 63.2 137.858 63.36C137.346 63.52 136.994 63.856 136.802 64.368C136.642 64.88 136.562 65.664 136.562 66.72V91.296C136.562 92.32 136.642 93.104 136.802 93.648C136.994 94.16 137.346 94.496 137.858 94.656C138.37 94.816 139.106 94.896 140.066 94.896H142.802C144.434 94.896 145.794 94.592 146.882 93.984C148.002 93.376 148.898 92.384 149.57 91.008C150.242 89.6 150.738 87.68 151.058 85.248H152.162C152.066 86.24 152.018 87.52 152.018 89.088C152.018 89.76 152.034 90.736 152.066 92.016C152.13 93.296 152.226 94.624 152.354 96C150.722 95.936 148.882 95.904 146.834 95.904C144.786 95.872 142.962 95.856 141.362 95.856C140.626 95.856 139.65 95.856 138.434 95.856C137.25 95.856 135.954 95.872 134.546 95.904C133.17 95.904 131.762 95.92 130.322 95.952C128.914 95.952 127.57 95.968 126.29 96V95.04C127.346 94.976 128.13 94.848 128.642 94.656C129.186 94.464 129.538 94.08 129.698 93.504C129.89 92.928 129.986 92.064 129.986 90.912V67.104C129.986 65.92 129.89 65.056 129.698 64.512C129.538 63.936 129.186 63.552 128.642 63.36C128.13 63.136 127.346 63.008 126.29 62.976V62.016C127.57 62.048 128.914 62.08 130.322 62.112C131.762 62.112 133.17 62.128 134.546 62.16C135.954 62.16 137.25 62.16 138.434 62.16C139.65 62.16 140.626 62.16 141.362 62.16C142.834 62.16 144.498 62.16 146.354 62.16C148.242 62.128 149.922 62.08 151.394 62.016ZM143.666 78.432C143.666 78.432 143.666 78.592 143.666 78.912C143.666 79.232 143.666 79.392 143.666 79.392H135.122C135.122 79.392 135.122 79.232 135.122 78.912C135.122 78.592 135.122 78.432 135.122 78.432H143.666ZM145.058 72.096C144.93 73.92 144.866 75.312 144.866 76.272C144.898 77.232 144.914 78.112 144.914 78.912C144.914 79.712 144.93 80.592 144.962 81.552C144.994 82.512 145.074 83.904 145.202 85.728H144.098C143.938 84.64 143.682 83.616 143.33 82.656C143.01 81.664 142.482 80.88 141.746 80.304C141.042 79.696 140.018 79.392 138.674 79.392V78.432C139.666 78.432 140.466 78.224 141.074 77.808C141.714 77.392 142.226 76.864 142.61 76.224C142.994 75.552 143.282 74.864 143.474 74.16C143.698 73.424 143.858 72.736 143.954 72.096H145.058ZM176.354 61.44C178.146 61.44 179.522 61.632 180.482 62.016C181.442 62.4 182.274 62.816 182.978 63.264C183.362 63.488 183.666 63.664 183.89 63.792C184.146 63.888 184.386 63.936 184.61 63.936C184.93 63.936 185.154 63.76 185.282 63.408C185.442 63.056 185.57 62.528 185.666 61.824H186.77C186.738 62.432 186.69 63.136 186.626 63.936C186.594 64.736 186.562 65.808 186.53 67.152C186.53 68.464 186.53 70.208 186.53 72.384H185.426C185.33 70.752 184.962 69.184 184.322 67.68C183.714 66.176 182.834 64.944 181.682 63.984C180.562 62.992 179.122 62.496 177.362 62.496C175.794 62.496 174.482 62.96 173.426 63.888C172.402 64.816 171.89 66.064 171.89 67.632C171.89 68.976 172.226 70.112 172.898 71.04C173.57 71.936 174.514 72.816 175.73 73.68C176.978 74.512 178.45 75.472 180.146 76.56C181.714 77.584 183.122 78.608 184.37 79.632C185.618 80.624 186.594 81.728 187.298 82.944C188.034 84.16 188.402 85.648 188.402 87.408C188.402 89.488 187.89 91.216 186.866 92.592C185.842 93.968 184.466 94.992 182.738 95.664C181.01 96.336 179.122 96.672 177.074 96.672C175.186 96.672 173.682 96.48 172.562 96.096C171.474 95.712 170.53 95.312 169.73 94.896C169.026 94.448 168.482 94.224 168.098 94.224C167.778 94.224 167.538 94.4 167.378 94.752C167.25 95.104 167.138 95.632 167.042 96.336H165.938C166.002 95.6 166.034 94.736 166.034 93.744C166.066 92.752 166.082 91.472 166.082 89.904C166.114 88.304 166.13 86.288 166.13 83.856H167.234C167.362 85.904 167.714 87.824 168.29 89.616C168.898 91.376 169.81 92.8 171.026 93.888C172.274 94.976 173.922 95.52 175.97 95.52C177.09 95.52 178.098 95.328 178.994 94.944C179.922 94.528 180.658 93.904 181.202 93.072C181.746 92.208 182.018 91.12 182.018 89.808C182.018 88.496 181.714 87.344 181.106 86.352C180.498 85.36 179.65 84.432 178.562 83.568C177.474 82.704 176.194 81.824 174.722 80.928C173.218 79.968 171.81 78.992 170.498 78C169.186 77.008 168.13 75.888 167.33 74.64C166.562 73.36 166.178 71.824 166.178 70.032C166.178 68.048 166.658 66.432 167.618 65.184C168.578 63.904 169.826 62.96 171.362 62.352C172.93 61.744 174.594 61.44 176.354 61.44ZM215.058 62.016V62.976C213.97 63.008 213.138 63.136 212.562 63.36C212.018 63.552 211.65 63.936 211.458 64.512C211.266 65.056 211.17 65.92 211.17 67.104V91.296C211.17 92.32 211.25 93.104 211.41 93.648C211.602 94.16 211.938 94.496 212.418 94.656C212.898 94.816 213.586 94.896 214.482 94.896H217.218C218.466 94.896 219.554 94.672 220.482 94.224C221.442 93.776 222.274 93.12 222.978 92.256C223.682 91.392 224.258 90.336 224.706 89.088C225.154 87.808 225.474 86.368 225.666 84.768H226.77C226.674 85.824 226.626 87.2 226.626 88.896C226.626 89.6 226.642 90.608 226.674 91.92C226.738 93.232 226.834 94.592 226.962 96C225.33 95.936 223.49 95.904 221.442 95.904C219.394 95.872 217.57 95.856 215.97 95.856C215.202 95.856 214.226 95.856 213.042 95.856C211.858 95.856 210.562 95.872 209.154 95.904C207.778 95.904 206.37 95.92 204.93 95.952C203.522 95.952 202.178 95.968 200.898 96V95.04C201.954 94.976 202.738 94.848 203.25 94.656C203.794 94.464 204.146 94.08 204.306 93.504C204.498 92.928 204.594 92.064 204.594 90.912V67.104C204.594 65.92 204.498 65.056 204.306 64.512C204.146 63.936 203.794 63.552 203.25 63.36C202.738 63.136 201.954 63.008 200.898 62.976V62.016C201.698 62.048 202.722 62.08 203.97 62.112C205.218 62.144 206.562 62.16 208.002 62.16C209.314 62.16 210.61 62.144 211.89 62.112C213.17 62.08 214.226 62.048 215.058 62.016ZM252.428 62.016V62.976C251.404 63.008 250.62 63.136 250.076 63.36C249.564 63.552 249.212 63.936 249.02 64.512C248.828 65.056 248.732 65.92 248.732 67.104V90.912C248.732 92.064 248.828 92.928 249.02 93.504C249.212 94.08 249.564 94.464 250.076 94.656C250.62 94.848 251.404 94.976 252.428 95.04V96C251.628 95.936 250.604 95.904 249.356 95.904C248.108 95.872 246.844 95.856 245.564 95.856C244.124 95.856 242.78 95.872 241.532 95.904C240.284 95.904 239.26 95.936 238.46 96V95.04C239.516 94.976 240.3 94.848 240.812 94.656C241.356 94.464 241.708 94.08 241.868 93.504C242.06 92.928 242.156 92.064 242.156 90.912V67.104C242.156 65.92 242.06 65.056 241.868 64.512C241.708 63.936 241.356 63.552 240.812 63.36C240.3 63.136 239.516 63.008 238.46 62.976V62.016C239.26 62.048 240.284 62.08 241.532 62.112C242.78 62.144 244.124 62.16 245.564 62.16C246.844 62.16 248.108 62.144 249.356 62.112C250.604 62.08 251.628 62.048 252.428 62.016ZM289.688 62.016C289.56 63.328 289.464 64.608 289.4 65.856C289.368 67.072 289.352 68 289.352 68.64C289.352 69.248 289.368 69.84 289.4 70.416C289.432 70.96 289.464 71.424 289.496 71.808H288.392C288.136 69.6 287.72 67.872 287.144 66.624C286.568 65.344 285.784 64.448 284.792 63.936C283.832 63.392 282.568 63.12 281 63.12H278.36C277.4 63.12 276.664 63.2 276.152 63.36C275.64 63.52 275.288 63.856 275.096 64.368C274.936 64.88 274.856 65.664 274.856 66.72V91.296C274.856 92.32 274.936 93.104 275.096 93.648C275.288 94.16 275.64 94.496 276.152 94.656C276.664 94.816 277.4 94.896 278.36 94.896H281.096C282.728 94.896 284.088 94.592 285.176 93.984C286.296 93.376 287.192 92.384 287.864 91.008C288.536 89.6 289.032 87.68 289.352 85.248H290.456C290.36 86.24 290.312 87.52 290.312 89.088C290.312 89.76 290.328 90.736 290.36 92.016C290.424 93.296 290.52 94.624 290.648 96C289.016 95.936 287.176 95.904 285.128 95.904C283.08 95.872 281.256 95.856 279.656 95.856C278.92 95.856 277.944 95.856 276.728 95.856C275.544 95.856 274.248 95.872 272.84 95.904C271.464 95.904 270.056 95.92 268.616 95.952C267.208 95.952 265.864 95.968 264.584 96V95.04C265.64 94.976 266.424 94.848 266.936 94.656C267.48 94.464 267.832 94.08 267.992 93.504C268.184 92.928 268.28 92.064 268.28 90.912V67.104C268.28 65.92 268.184 65.056 267.992 64.512C267.832 63.936 267.48 63.552 266.936 63.36C266.424 63.136 265.64 63.008 264.584 62.976V62.016C265.864 62.048 267.208 62.08 268.616 62.112C270.056 62.112 271.464 62.128 272.84 62.16C274.248 62.16 275.544 62.16 276.728 62.16C277.944 62.16 278.92 62.16 279.656 62.16C281.128 62.16 282.792 62.16 284.648 62.16C286.536 62.128 288.216 62.08 289.688 62.016ZM281.96 78.432C281.96 78.432 281.96 78.592 281.96 78.912C281.96 79.232 281.96 79.392 281.96 79.392H273.416C273.416 79.392 273.416 79.232 273.416 78.912C273.416 78.592 273.416 78.432 273.416 78.432H281.96ZM283.352 72.096C283.224 73.92 283.16 75.312 283.16 76.272C283.192 77.232 283.208 78.112 283.208 78.912C283.208 79.712 283.224 80.592 283.256 81.552C283.288 82.512 283.368 83.904 283.496 85.728H282.392C282.232 84.64 281.976 83.616 281.624 82.656C281.304 81.664 280.776 80.88 280.04 80.304C279.336 79.696 278.312 79.392 276.968 79.392V78.432C277.96 78.432 278.76 78.224 279.368 77.808C280.008 77.392 280.52 76.864 280.904 76.224C281.288 75.552 281.576 74.864 281.768 74.16C281.992 73.424 282.152 72.736 282.248 72.096H283.352ZM334.773 61.44C336.565 61.44 337.941 61.632 338.901 62.016C339.861 62.4 340.693 62.816 341.397 63.264C341.781 63.488 342.085 63.664 342.309 63.792C342.565 63.888 342.805 63.936 343.029 63.936C343.349 63.936 343.573 63.76 343.701 63.408C343.861 63.056 343.989 62.528 344.085 61.824H345.189C345.157 62.432 345.109 63.136 345.045 63.936C345.013 64.736 344.981 65.808 344.949 67.152C344.949 68.464 344.949 70.208 344.949 72.384H343.845C343.749 70.752 343.381 69.184 342.741 67.68C342.133 66.176 341.253 64.944 340.101 63.984C338.981 62.992 337.541 62.496 335.781 62.496C334.213 62.496 332.901 62.96 331.845 63.888C330.821 64.816 330.309 66.064 330.309 67.632C330.309 68.976 330.645 70.112 331.317 71.04C331.989 71.936 332.933 72.816 334.149 73.68C335.397 74.512 336.869 75.472 338.565 76.56C340.133 77.584 341.541 78.608 342.789 79.632C344.037 80.624 345.013 81.728 345.717 82.944C346.453 84.16 346.821 85.648 346.821 87.408C346.821 89.488 346.309 91.216 345.285 92.592C344.261 93.968 342.885 94.992 341.157 95.664C339.429 96.336 337.541 96.672 335.493 96.672C333.605 96.672 332.101 96.48 330.981 96.096C329.893 95.712 328.949 95.312 328.149 94.896C327.445 94.448 326.901 94.224 326.517 94.224C326.197 94.224 325.957 94.4 325.797 94.752C325.669 95.104 325.557 95.632 325.461 96.336H324.357C324.421 95.6 324.453 94.736 324.453 93.744C324.485 92.752 324.501 91.472 324.501 89.904C324.533 88.304 324.549 86.288 324.549 83.856H325.653C325.781 85.904 326.133 87.824 326.709 89.616C327.317 91.376 328.229 92.8 329.445 93.888C330.693 94.976 332.341 95.52 334.389 95.52C335.509 95.52 336.517 95.328 337.413 94.944C338.341 94.528 339.077 93.904 339.621 93.072C340.165 92.208 340.437 91.12 340.437 89.808C340.437 88.496 340.133 87.344 339.525 86.352C338.917 85.36 338.069 84.432 336.981 83.568C335.893 82.704 334.613 81.824 333.141 80.928C331.637 79.968 330.229 78.992 328.917 78C327.605 77.008 326.549 75.888 325.749 74.64C324.981 73.36 324.597 71.824 324.597 70.032C324.597 68.048 325.077 66.432 326.037 65.184C326.997 63.904 328.245 62.96 329.781 62.352C331.349 61.744 333.013 61.44 334.773 61.44ZM387.637 62.016C387.509 63.488 387.413 64.928 387.349 66.336C387.317 67.712 387.301 68.768 387.301 69.504C387.301 70.24 387.317 70.928 387.349 71.568C387.381 72.208 387.413 72.768 387.445 73.248H386.341C385.893 70.688 385.349 68.688 384.709 67.248C384.069 65.776 383.221 64.72 382.165 64.08C381.141 63.44 379.781 63.12 378.085 63.12H376.549V90.48C376.549 91.792 376.661 92.768 376.885 93.408C377.141 94.048 377.637 94.48 378.373 94.704C379.109 94.896 380.181 95.008 381.589 95.04V96C380.629 95.936 379.381 95.904 377.845 95.904C376.309 95.872 374.741 95.856 373.141 95.856C371.477 95.856 369.909 95.872 368.437 95.904C366.997 95.904 365.829 95.936 364.933 96V95.04C366.309 95.008 367.365 94.896 368.101 94.704C368.837 94.48 369.333 94.048 369.589 93.408C369.845 92.768 369.973 91.792 369.973 90.48V63.12H368.389C366.725 63.12 365.365 63.44 364.309 64.08C363.253 64.72 362.405 65.776 361.765 67.248C361.125 68.688 360.597 70.688 360.181 73.248H359.077C359.141 72.768 359.173 72.208 359.173 71.568C359.205 70.928 359.221 70.24 359.221 69.504C359.221 68.768 359.189 67.712 359.125 66.336C359.093 64.928 359.013 63.488 358.885 62.016C360.293 62.048 361.845 62.08 363.541 62.112C365.237 62.144 366.933 62.16 368.629 62.16C370.325 62.16 371.877 62.16 373.285 62.16C374.661 62.16 376.197 62.16 377.893 62.16C379.589 62.16 381.285 62.144 382.981 62.112C384.677 62.08 386.229 62.048 387.637 62.016ZM401.487 89.664C402.575 89.664 403.471 89.984 404.175 90.624C404.879 91.264 405.231 92.112 405.231 93.168C405.231 94.224 404.879 95.072 404.175 95.712C403.471 96.352 402.575 96.672 401.487 96.672C400.367 96.672 399.455 96.352 398.751 95.712C398.079 95.072 397.743 94.224 397.743 93.168C397.743 92.112 398.079 91.264 398.751 90.624C399.455 89.984 400.367 89.664 401.487 89.664Z" fill="#DDD5C4"/>
</svg>
