<svg width="596" height="68" viewBox="0 0 596 68" fill="none" xmlns="http://www.w3.org/2000/svg">
<path d="M381.288 19.488C382.888 19.488 384.104 19.68 384.936 20.064C385.768 20.416 386.504 20.816 387.144 21.264C387.528 21.488 387.832 21.664 388.056 21.792C388.312 21.888 388.552 21.936 388.776 21.936C389.096 21.936 389.32 21.76 389.448 21.408C389.608 21.056 389.736 20.528 389.832 19.824H390.936C390.904 20.368 390.856 21.024 390.792 21.792C390.76 22.528 390.728 23.52 390.696 24.768C390.696 25.984 390.696 27.6 390.696 29.616H389.592C389.496 28.08 389.16 26.608 388.584 25.2C388.008 23.792 387.16 22.64 386.04 21.744C384.952 20.848 383.512 20.4 381.72 20.4C380.024 20.4 378.616 20.912 377.496 21.936C376.408 22.96 375.864 24.304 375.864 25.968C375.864 27.408 376.232 28.624 376.968 29.616C377.704 30.576 378.68 31.456 379.896 32.256C381.144 33.024 382.488 33.856 383.928 34.752C385.592 35.776 387.064 36.8 388.344 37.824C389.656 38.816 390.68 39.92 391.416 41.136C392.184 42.352 392.568 43.824 392.568 45.552C392.568 47.6 392.104 49.296 391.176 50.64C390.248 51.984 389.016 52.992 387.48 53.664C385.944 54.336 384.248 54.672 382.392 54.672C380.696 54.672 379.352 54.48 378.36 54.096C377.368 53.712 376.52 53.312 375.816 52.896C375.112 52.448 374.568 52.224 374.184 52.224C373.864 52.224 373.624 52.4 373.464 52.752C373.336 53.104 373.224 53.632 373.128 54.336H372.024C372.088 53.664 372.12 52.88 372.12 51.984C372.152 51.056 372.168 49.856 372.168 48.384C372.2 46.912 372.216 45.056 372.216 42.816H373.32C373.448 44.736 373.8 46.528 374.376 48.192C374.984 49.856 375.896 51.2 377.112 52.224C378.36 53.216 380.008 53.712 382.056 53.712C383.112 53.712 384.104 53.504 385.032 53.088C385.992 52.64 386.776 51.952 387.384 51.024C387.992 50.064 388.296 48.832 388.296 47.328C388.296 46.016 387.976 44.88 387.336 43.92C386.728 42.928 385.864 42.016 384.744 41.184C383.624 40.32 382.312 39.44 380.808 38.544C379.304 37.616 377.896 36.672 376.584 35.712C375.272 34.752 374.216 33.648 373.416 32.4C372.648 31.12 372.264 29.584 372.264 27.792C372.264 25.904 372.68 24.352 373.512 23.136C374.376 21.888 375.496 20.976 376.872 20.4C378.248 19.792 379.72 19.488 381.288 19.488ZM433.898 20.016C433.77 21.232 433.674 22.416 433.61 23.568C433.578 24.688 433.562 25.552 433.562 26.16C433.562 26.928 433.578 27.648 433.61 28.32C433.642 28.992 433.674 29.584 433.706 30.096H432.602C432.378 27.856 432.074 26.096 431.69 24.816C431.306 23.504 430.634 22.56 429.674 21.984C428.714 21.408 427.226 21.12 425.21 21.12H422.618V48.432C422.618 49.712 422.73 50.672 422.954 51.312C423.21 51.952 423.69 52.384 424.394 52.608C425.098 52.832 426.122 52.976 427.466 53.04V54C426.634 53.936 425.578 53.904 424.298 53.904C423.018 53.872 421.722 53.856 420.41 53.856C418.97 53.856 417.61 53.872 416.33 53.904C415.082 53.904 414.074 53.936 413.306 54V53.04C414.65 52.976 415.674 52.832 416.378 52.608C417.082 52.384 417.546 51.952 417.77 51.312C418.026 50.672 418.154 49.712 418.154 48.432V21.12H415.562C413.578 21.12 412.09 21.408 411.098 21.984C410.138 22.56 409.466 23.504 409.082 24.816C408.698 26.096 408.394 27.856 408.17 30.096H407.066C407.13 29.584 407.162 28.992 407.162 28.32C407.194 27.648 407.21 26.928 407.21 26.16C407.21 25.552 407.178 24.688 407.114 23.568C407.082 22.416 407.002 21.232 406.874 20.016C408.218 20.048 409.674 20.08 411.242 20.112C412.842 20.144 414.442 20.16 416.042 20.16C417.642 20.16 419.098 20.16 420.41 20.16C421.722 20.16 423.162 20.16 424.73 20.16C426.33 20.16 427.93 20.144 429.53 20.112C431.13 20.08 432.586 20.048 433.898 20.016ZM477.294 20.016V20.976C476.206 21.008 475.374 21.168 474.798 21.456C474.254 21.744 473.886 22.208 473.694 22.848C473.502 23.488 473.406 24.4 473.406 25.584V40.032C473.406 42.272 473.262 44.224 472.974 45.888C472.686 47.552 472.174 48.992 471.438 50.208C470.638 51.552 469.47 52.64 467.934 53.472C466.398 54.272 464.638 54.672 462.654 54.672C461.118 54.672 459.646 54.48 458.238 54.096C456.862 53.744 455.646 53.072 454.59 52.08C453.662 51.184 452.926 50.24 452.382 49.248C451.87 48.256 451.518 47.04 451.326 45.6C451.134 44.16 451.038 42.352 451.038 40.176V25.104C451.038 23.92 450.942 23.056 450.75 22.512C450.558 21.936 450.174 21.552 449.598 21.36C449.054 21.136 448.238 21.008 447.15 20.976V20.016C447.822 20.048 448.702 20.08 449.79 20.112C450.878 20.144 452.046 20.16 453.294 20.16C454.414 20.16 455.518 20.144 456.606 20.112C457.726 20.08 458.654 20.048 459.39 20.016V20.976C458.302 21.008 457.47 21.136 456.894 21.36C456.35 21.552 455.982 21.936 455.79 22.512C455.598 23.056 455.502 23.92 455.502 25.104V40.992C455.502 42.624 455.582 44.176 455.742 45.648C455.902 47.088 456.222 48.368 456.702 49.488C457.214 50.576 457.982 51.44 459.006 52.08C460.03 52.688 461.39 52.992 463.086 52.992C465.518 52.992 467.39 52.464 468.702 51.408C470.046 50.32 470.974 48.832 471.486 46.944C472.03 45.056 472.302 42.928 472.302 40.56V25.584C472.302 24.4 472.158 23.488 471.87 22.848C471.614 22.208 471.166 21.744 470.526 21.456C469.886 21.168 469.022 21.008 467.934 20.976V20.016C468.51 20.048 469.262 20.08 470.19 20.112C471.15 20.144 472.03 20.16 472.83 20.16C473.662 20.16 474.478 20.144 475.278 20.112C476.11 20.08 476.782 20.048 477.294 20.016ZM504.253 20.016C509.981 20.016 514.237 21.456 517.021 24.336C519.805 27.184 521.197 31.28 521.197 36.624C521.197 40.112 520.509 43.168 519.133 45.792C517.789 48.384 515.821 50.4 513.229 51.84C510.637 53.28 507.501 54 503.821 54C503.341 54 502.701 53.984 501.901 53.952C501.101 53.92 500.269 53.904 499.405 53.904C498.573 53.872 497.805 53.856 497.101 53.856C495.981 53.856 494.877 53.872 493.789 53.904C492.701 53.904 491.821 53.936 491.149 54V53.04C492.237 52.976 493.053 52.848 493.597 52.656C494.173 52.464 494.557 52.08 494.749 51.504C494.941 50.928 495.037 50.064 495.037 48.912V25.104C495.037 23.92 494.941 23.056 494.749 22.512C494.557 21.936 494.173 21.552 493.597 21.36C493.053 21.136 492.237 21.008 491.149 20.976V20.016C491.821 20.048 492.701 20.096 493.789 20.16C494.877 20.192 495.949 20.192 497.005 20.16C498.125 20.128 499.389 20.096 500.797 20.064C502.205 20.032 503.357 20.016 504.253 20.016ZM503.053 20.88C501.581 20.88 500.621 21.152 500.173 21.696C499.725 22.24 499.501 23.344 499.501 25.008V49.008C499.501 50.672 499.725 51.776 500.173 52.32C500.653 52.864 501.629 53.136 503.101 53.136C506.589 53.136 509.293 52.512 511.213 51.264C513.133 49.984 514.477 48.128 515.245 45.696C516.013 43.264 516.397 40.304 516.397 36.816C516.397 33.232 515.965 30.272 515.101 27.936C514.269 25.568 512.877 23.808 510.925 22.656C509.005 21.472 506.381 20.88 503.053 20.88ZM548.215 20.016V20.976C547.127 21.008 546.295 21.136 545.719 21.36C545.175 21.552 544.807 21.936 544.615 22.512C544.423 23.056 544.327 23.92 544.327 25.104V48.912C544.327 50.064 544.423 50.928 544.615 51.504C544.807 52.08 545.175 52.464 545.719 52.656C546.295 52.848 547.127 52.976 548.215 53.04V54C547.479 53.936 546.551 53.904 545.431 53.904C544.343 53.872 543.239 53.856 542.119 53.856C540.871 53.856 539.703 53.872 538.615 53.904C537.527 53.904 536.647 53.936 535.975 54V53.04C537.063 52.976 537.879 52.848 538.423 52.656C538.999 52.464 539.383 52.08 539.575 51.504C539.767 50.928 539.863 50.064 539.863 48.912V25.104C539.863 23.92 539.767 23.056 539.575 22.512C539.383 21.936 538.999 21.552 538.423 21.36C537.879 21.136 537.063 21.008 535.975 20.976V20.016C536.647 20.048 537.527 20.08 538.615 20.112C539.703 20.144 540.871 20.16 542.119 20.16C543.239 20.16 544.343 20.144 545.431 20.112C546.551 20.08 547.479 20.048 548.215 20.016ZM578.217 19.344C581.257 19.344 583.913 20.032 586.185 21.408C588.489 22.784 590.265 24.768 591.513 27.36C592.793 29.92 593.433 33.04 593.433 36.72C593.433 40.304 592.777 43.44 591.465 46.128C590.185 48.816 588.393 50.912 586.089 52.416C583.785 53.92 581.145 54.672 578.169 54.672C575.129 54.672 572.457 53.984 570.153 52.608C567.881 51.232 566.105 49.248 564.825 46.656C563.577 44.064 562.953 40.944 562.953 37.296C562.953 33.712 563.609 30.576 564.921 27.888C566.233 25.2 568.025 23.104 570.297 21.6C572.601 20.096 575.241 19.344 578.217 19.344ZM578.025 20.208C575.945 20.208 574.137 20.928 572.601 22.368C571.065 23.808 569.865 25.792 569.001 28.32C568.169 30.848 567.753 33.776 567.753 37.104C567.753 40.496 568.217 43.456 569.145 45.984C570.105 48.48 571.385 50.416 572.985 51.792C574.617 53.136 576.409 53.808 578.361 53.808C580.441 53.808 582.249 53.088 583.785 51.648C585.321 50.208 586.505 48.224 587.337 45.696C588.201 43.136 588.633 40.208 588.633 36.912C588.633 33.488 588.153 30.528 587.193 28.032C586.265 25.536 585.001 23.616 583.401 22.272C581.801 20.896 580.009 20.208 578.025 20.208Z" fill="#1B4332"/>
<rect x="344" width="2" height="68" fill="#C9A84C"/>
<path d="M15.888 20.016V20.976C14.8 21.008 13.968 21.136 13.392 21.36C12.848 21.552 12.48 21.936 12.288 22.512C12.096 23.056 12 23.92 12 25.104V49.296C12 50.32 12.08 51.104 12.24 51.648C12.432 52.16 12.768 52.496 13.248 52.656C13.728 52.816 14.416 52.896 15.312 52.896H18.048C19.296 52.896 20.384 52.672 21.312 52.224C22.272 51.776 23.104 51.12 23.808 50.256C24.512 49.392 25.088 48.336 25.536 47.088C25.984 45.808 26.304 44.368 26.496 42.768H27.6C27.504 43.824 27.456 45.2 27.456 46.896C27.456 47.6 27.472 48.608 27.504 49.92C27.568 51.232 27.664 52.592 27.792 54C26.16 53.936 24.32 53.904 22.272 53.904C20.224 53.872 18.4 53.856 16.8 53.856C16.032 53.856 15.056 53.856 13.872 53.856C12.688 53.856 11.392 53.872 9.984 53.904C8.608 53.904 7.2 53.92 5.76 53.952C4.352 53.952 3.008 53.968 1.728 54V53.04C2.784 52.976 3.568 52.848 4.08 52.656C4.624 52.464 4.976 52.08 5.136 51.504C5.328 50.928 5.424 50.064 5.424 48.912V25.104C5.424 23.92 5.328 23.056 5.136 22.512C4.976 21.936 4.624 21.552 4.08 21.36C3.568 21.136 2.784 21.008 1.728 20.976V20.016C2.528 20.048 3.552 20.08 4.8 20.112C6.048 20.144 7.392 20.16 8.832 20.16C10.144 20.16 11.44 20.144 12.72 20.112C14 20.08 15.056 20.048 15.888 20.016ZM64.3939 20.016C64.2659 21.328 64.1699 22.608 64.1059 23.856C64.0739 25.072 64.0579 26 64.0579 26.64C64.0579 27.248 64.0739 27.84 64.1059 28.416C64.1379 28.96 64.1699 29.424 64.2019 29.808H63.0979C62.8419 27.6 62.4259 25.872 61.8499 24.624C61.2739 23.344 60.4899 22.448 59.4979 21.936C58.5379 21.392 57.2739 21.12 55.7059 21.12H53.0659C52.1059 21.12 51.3699 21.2 50.8579 21.36C50.3459 21.52 49.9939 21.856 49.8019 22.368C49.6419 22.88 49.5619 23.664 49.5619 24.72V49.296C49.5619 50.32 49.6419 51.104 49.8019 51.648C49.9939 52.16 50.3459 52.496 50.8579 52.656C51.3699 52.816 52.1059 52.896 53.0659 52.896H55.8019C57.4339 52.896 58.7939 52.592 59.8819 51.984C61.0019 51.376 61.8979 50.384 62.5699 49.008C63.2419 47.6 63.7379 45.68 64.0579 43.248H65.1619C65.0659 44.24 65.0179 45.52 65.0179 47.088C65.0179 47.76 65.0339 48.736 65.0659 50.016C65.1299 51.296 65.2259 52.624 65.3539 54C63.7219 53.936 61.8819 53.904 59.8339 53.904C57.7859 53.872 55.9619 53.856 54.3619 53.856C53.6259 53.856 52.6499 53.856 51.4339 53.856C50.2499 53.856 48.9539 53.872 47.5459 53.904C46.1699 53.904 44.7619 53.92 43.3219 53.952C41.9139 53.952 40.5699 53.968 39.2899 54V53.04C40.3459 52.976 41.1299 52.848 41.6419 52.656C42.1859 52.464 42.5379 52.08 42.6979 51.504C42.8899 50.928 42.9859 50.064 42.9859 48.912V25.104C42.9859 23.92 42.8899 23.056 42.6979 22.512C42.5379 21.936 42.1859 21.552 41.6419 21.36C41.1299 21.136 40.3459 21.008 39.2899 20.976V20.016C40.5699 20.048 41.9139 20.08 43.3219 20.112C44.7619 20.112 46.1699 20.128 47.5459 20.16C48.9539 20.16 50.2499 20.16 51.4339 20.16C52.6499 20.16 53.6259 20.16 54.3619 20.16C55.8339 20.16 57.4979 20.16 59.3539 20.16C61.2419 20.128 62.9219 20.08 64.3939 20.016ZM56.6659 36.432C56.6659 36.432 56.6659 36.592 56.6659 36.912C56.6659 37.232 56.6659 37.392 56.6659 37.392H48.1219C48.1219 37.392 48.1219 37.232 48.1219 36.912C48.1219 36.592 48.1219 36.432 48.1219 36.432H56.6659ZM58.0579 30.096C57.9299 31.92 57.8659 33.312 57.8659 34.272C57.8979 35.232 57.9139 36.112 57.9139 36.912C57.9139 37.712 57.9299 38.592 57.9619 39.552C57.9939 40.512 58.0739 41.904 58.2019 43.728H57.0979C56.9379 42.64 56.6819 41.616 56.3299 40.656C56.0099 39.664 55.4819 38.88 54.7459 38.304C54.0419 37.696 53.0179 37.392 51.6739 37.392V36.432C52.6659 36.432 53.4659 36.224 54.0739 35.808C54.7139 35.392 55.2259 34.864 55.6099 34.224C55.9939 33.552 56.2819 32.864 56.4739 32.16C56.6979 31.424 56.8579 30.736 56.9539 30.096H58.0579ZM89.3539 19.44C91.1459 19.44 92.5219 19.632 93.4819 20.016C94.4419 20.4 95.2739 20.816 95.9779 21.264C96.3619 21.488 96.6659 21.664 96.8899 21.792C97.1459 21.888 97.3859 21.936 97.6099 21.936C97.9299 21.936 98.1539 21.76 98.2819 21.408C98.4419 21.056 98.5699 20.528 98.6659 19.824H99.7699C99.7379 20.432 99.6899 21.136 99.6259 21.936C99.5939 22.736 99.5619 23.808 99.5299 25.152C99.5299 26.464 99.5299 28.208 99.5299 30.384H98.4259C98.3299 28.752 97.9619 27.184 97.3219 25.68C96.7139 24.176 95.8339 22.944 94.6819 21.984C93.5619 20.992 92.1219 20.496 90.3619 20.496C88.7939 20.496 87.4819 20.96 86.4259 21.888C85.4019 22.816 84.8899 24.064 84.8899 25.632C84.8899 26.976 85.2259 28.112 85.8979 29.04C86.5699 29.936 87.5139 30.816 88.7299 31.68C89.9779 32.512 91.4499 33.472 93.1459 34.56C94.7139 35.584 96.1219 36.608 97.3699 37.632C98.6179 38.624 99.5939 39.728 100.298 40.944C101.034 42.16 101.402 43.648 101.402 45.408C101.402 47.488 100.89 49.216 99.8659 50.592C98.8419 51.968 97.4659 52.992 95.7379 53.664C94.0099 54.336 92.1219 54.672 90.0739 54.672C88.1859 54.672 86.6819 54.48 85.5619 54.096C84.4739 53.712 83.5299 53.312 82.7299 52.896C82.0259 52.448 81.4819 52.224 81.0979 52.224C80.7779 52.224 80.5379 52.4 80.3779 52.752C80.2499 53.104 80.1379 53.632 80.0419 54.336H78.9379C79.0019 53.6 79.0339 52.736 79.0339 51.744C79.0659 50.752 79.0819 49.472 79.0819 47.904C79.1139 46.304 79.1299 44.288 79.1299 41.856H80.2339C80.3619 43.904 80.7139 45.824 81.2899 47.616C81.8979 49.376 82.8099 50.8 84.0259 51.888C85.2739 52.976 86.9219 53.52 88.9699 53.52C90.0899 53.52 91.0979 53.328 91.9939 52.944C92.9219 52.528 93.6579 51.904 94.2019 51.072C94.7459 50.208 95.0179 49.12 95.0179 47.808C95.0179 46.496 94.7139 45.344 94.1059 44.352C93.4979 43.36 92.6499 42.432 91.5619 41.568C90.4739 40.704 89.1939 39.824 87.7219 38.928C86.2179 37.968 84.8099 36.992 83.4979 36C82.1859 35.008 81.1299 33.888 80.3299 32.64C79.5619 31.36 79.1779 29.824 79.1779 28.032C79.1779 26.048 79.6579 24.432 80.6179 23.184C81.5779 21.904 82.8259 20.96 84.3619 20.352C85.9299 19.744 87.5939 19.44 89.3539 19.44ZM128.058 20.016V20.976C126.97 21.008 126.138 21.136 125.562 21.36C125.018 21.552 124.65 21.936 124.458 22.512C124.266 23.056 124.17 23.92 124.17 25.104V49.296C124.17 50.32 124.25 51.104 124.41 51.648C124.602 52.16 124.938 52.496 125.418 52.656C125.898 52.816 126.586 52.896 127.482 52.896H130.218C131.466 52.896 132.554 52.672 133.482 52.224C134.442 51.776 135.274 51.12 135.978 50.256C136.682 49.392 137.258 48.336 137.706 47.088C138.154 45.808 138.474 44.368 138.666 42.768H139.77C139.674 43.824 139.626 45.2 139.626 46.896C139.626 47.6 139.642 48.608 139.674 49.92C139.738 51.232 139.834 52.592 139.962 54C138.33 53.936 136.49 53.904 134.442 53.904C132.394 53.872 130.57 53.856 128.97 53.856C128.202 53.856 127.226 53.856 126.042 53.856C124.858 53.856 123.562 53.872 122.154 53.904C120.778 53.904 119.37 53.92 117.93 53.952C116.522 53.952 115.178 53.968 113.898 54V53.04C114.954 52.976 115.738 52.848 116.25 52.656C116.794 52.464 117.146 52.08 117.306 51.504C117.498 50.928 117.594 50.064 117.594 48.912V25.104C117.594 23.92 117.498 23.056 117.306 22.512C117.146 21.936 116.794 21.552 116.25 21.36C115.738 21.136 114.954 21.008 113.898 20.976V20.016C114.698 20.048 115.722 20.08 116.97 20.112C118.218 20.144 119.562 20.16 121.002 20.16C122.314 20.16 123.61 20.144 124.89 20.112C126.17 20.08 127.226 20.048 128.058 20.016ZM165.428 20.016V20.976C164.404 21.008 163.62 21.136 163.076 21.36C162.564 21.552 162.212 21.936 162.02 22.512C161.828 23.056 161.732 23.92 161.732 25.104V48.912C161.732 50.064 161.828 50.928 162.02 51.504C162.212 52.08 162.564 52.464 163.076 52.656C163.62 52.848 164.404 52.976 165.428 53.04V54C164.628 53.936 163.604 53.904 162.356 53.904C161.108 53.872 159.844 53.856 158.564 53.856C157.124 53.856 155.78 53.872 154.532 53.904C153.284 53.904 152.26 53.936 151.46 54V53.04C152.516 52.976 153.3 52.848 153.812 52.656C154.356 52.464 154.708 52.08 154.868 51.504C155.06 50.928 155.156 50.064 155.156 48.912V25.104C155.156 23.92 155.06 23.056 154.868 22.512C154.708 21.936 154.356 21.552 153.812 21.36C153.3 21.136 152.516 21.008 151.46 20.976V20.016C152.26 20.048 153.284 20.08 154.532 20.112C155.78 20.144 157.124 20.16 158.564 20.16C159.844 20.16 161.108 20.144 162.356 20.112C163.604 20.08 164.628 20.048 165.428 20.016ZM202.688 20.016C202.56 21.328 202.464 22.608 202.4 23.856C202.368 25.072 202.352 26 202.352 26.64C202.352 27.248 202.368 27.84 202.4 28.416C202.432 28.96 202.464 29.424 202.496 29.808H201.392C201.136 27.6 200.72 25.872 200.144 24.624C199.568 23.344 198.784 22.448 197.792 21.936C196.832 21.392 195.568 21.12 194 21.12H191.36C190.4 21.12 189.664 21.2 189.152 21.36C188.64 21.52 188.288 21.856 188.096 22.368C187.936 22.88 187.856 23.664 187.856 24.72V49.296C187.856 50.32 187.936 51.104 188.096 51.648C188.288 52.16 188.64 52.496 189.152 52.656C189.664 52.816 190.4 52.896 191.36 52.896H194.096C195.728 52.896 197.088 52.592 198.176 51.984C199.296 51.376 200.192 50.384 200.864 49.008C201.536 47.6 202.032 45.68 202.352 43.248H203.456C203.36 44.24 203.312 45.52 203.312 47.088C203.312 47.76 203.328 48.736 203.36 50.016C203.424 51.296 203.52 52.624 203.648 54C202.016 53.936 200.176 53.904 198.128 53.904C196.08 53.872 194.256 53.856 192.656 53.856C191.92 53.856 190.944 53.856 189.728 53.856C188.544 53.856 187.248 53.872 185.84 53.904C184.464 53.904 183.056 53.92 181.616 53.952C180.208 53.952 178.864 53.968 177.584 54V53.04C178.64 52.976 179.424 52.848 179.936 52.656C180.48 52.464 180.832 52.08 180.992 51.504C181.184 50.928 181.28 50.064 181.28 48.912V25.104C181.28 23.92 181.184 23.056 180.992 22.512C180.832 21.936 180.48 21.552 179.936 21.36C179.424 21.136 178.64 21.008 177.584 20.976V20.016C178.864 20.048 180.208 20.08 181.616 20.112C183.056 20.112 184.464 20.128 185.84 20.16C187.248 20.16 188.544 20.16 189.728 20.16C190.944 20.16 191.92 20.16 192.656 20.16C194.128 20.16 195.792 20.16 197.648 20.16C199.536 20.128 201.216 20.08 202.688 20.016ZM194.96 36.432C194.96 36.432 194.96 36.592 194.96 36.912C194.96 37.232 194.96 37.392 194.96 37.392H186.416C186.416 37.392 186.416 37.232 186.416 36.912C186.416 36.592 186.416 36.432 186.416 36.432H194.96ZM196.352 30.096C196.224 31.92 196.16 33.312 196.16 34.272C196.192 35.232 196.208 36.112 196.208 36.912C196.208 37.712 196.224 38.592 196.256 39.552C196.288 40.512 196.368 41.904 196.496 43.728H195.392C195.232 42.64 194.976 41.616 194.624 40.656C194.304 39.664 193.776 38.88 193.04 38.304C192.336 37.696 191.312 37.392 189.968 37.392V36.432C190.96 36.432 191.76 36.224 192.368 35.808C193.008 35.392 193.52 34.864 193.904 34.224C194.288 33.552 194.576 32.864 194.768 32.16C194.992 31.424 195.152 30.736 195.248 30.096H196.352ZM247.773 19.44C249.565 19.44 250.941 19.632 251.901 20.016C252.861 20.4 253.693 20.816 254.397 21.264C254.781 21.488 255.085 21.664 255.309 21.792C255.565 21.888 255.805 21.936 256.029 21.936C256.349 21.936 256.573 21.76 256.701 21.408C256.861 21.056 256.989 20.528 257.085 19.824H258.189C258.157 20.432 258.109 21.136 258.045 21.936C258.013 22.736 257.981 23.808 257.949 25.152C257.949 26.464 257.949 28.208 257.949 30.384H256.845C256.749 28.752 256.381 27.184 255.741 25.68C255.133 24.176 254.253 22.944 253.101 21.984C251.981 20.992 250.541 20.496 248.781 20.496C247.213 20.496 245.901 20.96 244.845 21.888C243.821 22.816 243.309 24.064 243.309 25.632C243.309 26.976 243.645 28.112 244.317 29.04C244.989 29.936 245.933 30.816 247.149 31.68C248.397 32.512 249.869 33.472 251.565 34.56C253.133 35.584 254.541 36.608 255.789 37.632C257.037 38.624 258.013 39.728 258.717 40.944C259.453 42.16 259.821 43.648 259.821 45.408C259.821 47.488 259.309 49.216 258.285 50.592C257.261 51.968 255.885 52.992 254.157 53.664C252.429 54.336 250.541 54.672 248.493 54.672C246.605 54.672 245.101 54.48 243.981 54.096C242.893 53.712 241.949 53.312 241.149 52.896C240.445 52.448 239.901 52.224 239.517 52.224C239.197 52.224 238.957 52.4 238.797 52.752C238.669 53.104 238.557 53.632 238.461 54.336H237.357C237.421 53.6 237.453 52.736 237.453 51.744C237.485 50.752 237.501 49.472 237.501 47.904C237.533 46.304 237.549 44.288 237.549 41.856H238.653C238.781 43.904 239.133 45.824 239.709 47.616C240.317 49.376 241.229 50.8 242.445 51.888C243.693 52.976 245.341 53.52 247.389 53.52C248.509 53.52 249.517 53.328 250.413 52.944C251.341 52.528 252.077 51.904 252.621 51.072C253.165 50.208 253.437 49.12 253.437 47.808C253.437 46.496 253.133 45.344 252.525 44.352C251.917 43.36 251.069 42.432 249.981 41.568C248.893 40.704 247.613 39.824 246.141 38.928C244.637 37.968 243.229 36.992 241.917 36C240.605 35.008 239.549 33.888 238.749 32.64C237.981 31.36 237.597 29.824 237.597 28.032C237.597 26.048 238.077 24.432 239.037 23.184C239.997 21.904 241.245 20.96 242.781 20.352C244.349 19.744 246.013 19.44 247.773 19.44ZM300.637 20.016C300.509 21.488 300.413 22.928 300.349 24.336C300.317 25.712 300.301 26.768 300.301 27.504C300.301 28.24 300.317 28.928 300.349 29.568C300.381 30.208 300.413 30.768 300.445 31.248H299.341C298.893 28.688 298.349 26.688 297.709 25.248C297.069 23.776 296.221 22.72 295.165 22.08C294.141 21.44 292.781 21.12 291.085 21.12H289.549V48.48C289.549 49.792 289.661 50.768 289.885 51.408C290.141 52.048 290.637 52.48 291.373 52.704C292.109 52.896 293.181 53.008 294.589 53.04V54C293.629 53.936 292.381 53.904 290.845 53.904C289.309 53.872 287.741 53.856 286.141 53.856C284.477 53.856 282.909 53.872 281.437 53.904C279.997 53.904 278.829 53.936 277.933 54V53.04C279.309 53.008 280.365 52.896 281.101 52.704C281.837 52.48 282.333 52.048 282.589 51.408C282.845 50.768 282.973 49.792 282.973 48.48V21.12H281.389C279.725 21.12 278.365 21.44 277.309 22.08C276.253 22.72 275.405 23.776 274.765 25.248C274.125 26.688 273.597 28.688 273.181 31.248H272.077C272.141 30.768 272.173 30.208 272.173 29.568C272.205 28.928 272.221 28.24 272.221 27.504C272.221 26.768 272.189 25.712 272.125 24.336C272.093 22.928 272.013 21.488 271.885 20.016C273.293 20.048 274.845 20.08 276.541 20.112C278.237 20.144 279.933 20.16 281.629 20.16C283.325 20.16 284.877 20.16 286.285 20.16C287.661 20.16 289.197 20.16 290.893 20.16C292.589 20.16 294.285 20.144 295.981 20.112C297.677 20.08 299.229 20.048 300.637 20.016ZM314.487 47.664C315.575 47.664 316.471 47.984 317.175 48.624C317.879 49.264 318.231 50.112 318.231 51.168C318.231 52.224 317.879 53.072 317.175 53.712C316.471 54.352 315.575 54.672 314.487 54.672C313.367 54.672 312.455 54.352 311.751 53.712C311.079 53.072 310.743 52.224 310.743 51.168C310.743 50.112 311.079 49.264 311.751 48.624C312.455 47.984 313.367 47.664 314.487 47.664Z" fill="#1B4332"/>
</svg>
