<svg width="321" height="127" viewBox="0 0 321 127" fill="none" xmlns="http://www.w3.org/2000/svg">
<path d="M78.168 99.868C79.1013 99.868 79.8107 99.98 80.296 100.204C80.7813 100.409 81.2107 100.643 81.584 100.904C81.808 101.035 81.9853 101.137 82.116 101.212C82.2653 101.268 82.4053 101.296 82.536 101.296C82.7227 101.296 82.8533 101.193 82.928 100.988C83.0213 100.783 83.096 100.475 83.152 100.064H83.796C83.7773 100.381 83.7493 100.764 83.712 101.212C83.6933 101.641 83.6747 102.22 83.656 102.948C83.656 103.657 83.656 104.6 83.656 105.776H83.012C82.956 104.88 82.76 104.021 82.424 103.2C82.088 102.379 81.5933 101.707 80.94 101.184C80.3053 100.661 79.4653 100.4 78.42 100.4C77.4307 100.4 76.6093 100.699 75.956 101.296C75.3213 101.893 75.004 102.677 75.004 103.648C75.004 104.488 75.2187 105.197 75.648 105.776C76.0773 106.336 76.6467 106.849 77.356 107.316C78.084 107.764 78.868 108.249 79.708 108.772C80.6787 109.369 81.5373 109.967 82.284 110.564C83.0493 111.143 83.6467 111.787 84.076 112.496C84.524 113.205 84.748 114.064 84.748 115.072C84.748 116.267 84.4773 117.256 83.936 118.04C83.3947 118.824 82.676 119.412 81.78 119.804C80.884 120.196 79.8947 120.392 78.812 120.392C77.8227 120.392 77.0387 120.28 76.46 120.056C75.8813 119.832 75.3867 119.599 74.976 119.356C74.5653 119.095 74.248 118.964 74.024 118.964C73.8373 118.964 73.6973 119.067 73.604 119.272C73.5293 119.477 73.464 119.785 73.408 120.196H72.764C72.8013 119.804 72.82 119.347 72.82 118.824C72.8387 118.283 72.848 117.583 72.848 116.724C72.8667 115.865 72.876 114.783 72.876 113.476H73.52C73.5947 114.596 73.8 115.641 74.136 116.612C74.4907 117.583 75.0227 118.367 75.732 118.964C76.46 119.543 77.4213 119.832 78.616 119.832C79.232 119.832 79.8107 119.711 80.352 119.468C80.912 119.207 81.3693 118.805 81.724 118.264C82.0787 117.704 82.256 116.985 82.256 116.108C82.256 115.343 82.0693 114.68 81.696 114.12C81.3413 113.541 80.8373 113.009 80.184 112.524C79.5307 112.02 78.7653 111.507 77.888 110.984C77.0107 110.443 76.1893 109.892 75.424 109.332C74.6587 108.772 74.0427 108.128 73.576 107.4C73.128 106.653 72.904 105.757 72.904 104.712C72.904 103.611 73.1467 102.705 73.632 101.996C74.136 101.268 74.7893 100.736 75.592 100.4C76.3947 100.045 77.2533 99.868 78.168 99.868ZM118.097 100.176C118.022 100.885 117.966 101.576 117.929 102.248C117.91 102.901 117.901 103.405 117.901 103.76C117.901 104.208 117.91 104.628 117.929 105.02C117.948 105.412 117.966 105.757 117.985 106.056H117.341C117.21 104.749 117.033 103.723 116.809 102.976C116.585 102.211 116.193 101.66 115.633 101.324C115.073 100.988 114.205 100.82 113.029 100.82H111.517V116.752C111.517 117.499 111.582 118.059 111.713 118.432C111.862 118.805 112.142 119.057 112.553 119.188C112.964 119.319 113.561 119.403 114.345 119.44V120C113.86 119.963 113.244 119.944 112.497 119.944C111.75 119.925 110.994 119.916 110.229 119.916C109.389 119.916 108.596 119.925 107.849 119.944C107.121 119.944 106.533 119.963 106.085 120V119.44C106.869 119.403 107.466 119.319 107.877 119.188C108.288 119.057 108.558 118.805 108.689 118.432C108.838 118.059 108.913 117.499 108.913 116.752V100.82H107.401C106.244 100.82 105.376 100.988 104.797 101.324C104.237 101.66 103.845 102.211 103.621 102.976C103.397 103.723 103.22 104.749 103.089 106.056H102.445C102.482 105.757 102.501 105.412 102.501 105.02C102.52 104.628 102.529 104.208 102.529 103.76C102.529 103.405 102.51 102.901 102.473 102.248C102.454 101.576 102.408 100.885 102.333 100.176C103.117 100.195 103.966 100.213 104.881 100.232C105.814 100.251 106.748 100.26 107.681 100.26C108.614 100.26 109.464 100.26 110.229 100.26C110.994 100.26 111.834 100.26 112.749 100.26C113.682 100.26 114.616 100.251 115.549 100.232C116.482 100.213 117.332 100.195 118.097 100.176ZM152.652 100.176V100.736C152.017 100.755 151.532 100.848 151.196 101.016C150.878 101.184 150.664 101.455 150.552 101.828C150.44 102.201 150.384 102.733 150.384 103.424V111.852C150.384 113.159 150.3 114.297 150.132 115.268C149.964 116.239 149.665 117.079 149.236 117.788C148.769 118.572 148.088 119.207 147.192 119.692C146.296 120.159 145.269 120.392 144.112 120.392C143.216 120.392 142.357 120.28 141.536 120.056C140.733 119.851 140.024 119.459 139.408 118.88C138.866 118.357 138.437 117.807 138.12 117.228C137.821 116.649 137.616 115.94 137.504 115.1C137.392 114.26 137.336 113.205 137.336 111.936V103.144C137.336 102.453 137.28 101.949 137.168 101.632C137.056 101.296 136.832 101.072 136.496 100.96C136.178 100.829 135.702 100.755 135.068 100.736V100.176C135.46 100.195 135.973 100.213 136.608 100.232C137.242 100.251 137.924 100.26 138.652 100.26C139.305 100.26 139.949 100.251 140.584 100.232C141.237 100.213 141.778 100.195 142.208 100.176V100.736C141.573 100.755 141.088 100.829 140.752 100.96C140.434 101.072 140.22 101.296 140.108 101.632C139.996 101.949 139.94 102.453 139.94 103.144V112.412C139.94 113.364 139.986 114.269 140.08 115.128C140.173 115.968 140.36 116.715 140.64 117.368C140.938 118.003 141.386 118.507 141.984 118.88C142.581 119.235 143.374 119.412 144.364 119.412C145.782 119.412 146.874 119.104 147.64 118.488C148.424 117.853 148.965 116.985 149.264 115.884C149.581 114.783 149.74 113.541 149.74 112.16V103.424C149.74 102.733 149.656 102.201 149.488 101.828C149.338 101.455 149.077 101.184 148.704 101.016C148.33 100.848 147.826 100.755 147.192 100.736V100.176C147.528 100.195 147.966 100.213 148.508 100.232C149.068 100.251 149.581 100.26 150.048 100.26C150.533 100.26 151.009 100.251 151.476 100.232C151.961 100.213 152.353 100.195 152.652 100.176ZM177.618 100.176C180.959 100.176 183.442 101.016 185.066 102.696C186.69 104.357 187.502 106.747 187.502 109.864C187.502 111.899 187.1 113.681 186.298 115.212C185.514 116.724 184.366 117.9 182.854 118.74C181.342 119.58 179.512 120 177.366 120C177.086 120 176.712 119.991 176.246 119.972C175.779 119.953 175.294 119.944 174.79 119.944C174.304 119.925 173.856 119.916 173.446 119.916C172.792 119.916 172.148 119.925 171.514 119.944C170.879 119.944 170.366 119.963 169.974 120V119.44C170.608 119.403 171.084 119.328 171.402 119.216C171.738 119.104 171.962 118.88 172.074 118.544C172.186 118.208 172.242 117.704 172.242 117.032V103.144C172.242 102.453 172.186 101.949 172.074 101.632C171.962 101.296 171.738 101.072 171.402 100.96C171.084 100.829 170.608 100.755 169.974 100.736V100.176C170.366 100.195 170.879 100.223 171.514 100.26C172.148 100.279 172.774 100.279 173.39 100.26C174.043 100.241 174.78 100.223 175.602 100.204C176.423 100.185 177.095 100.176 177.618 100.176ZM176.918 100.68C176.059 100.68 175.499 100.839 175.238 101.156C174.976 101.473 174.846 102.117 174.846 103.088V117.088C174.846 118.059 174.976 118.703 175.238 119.02C175.518 119.337 176.087 119.496 176.946 119.496C178.98 119.496 180.558 119.132 181.678 118.404C182.798 117.657 183.582 116.575 184.03 115.156C184.478 113.737 184.702 112.011 184.702 109.976C184.702 107.885 184.45 106.159 183.946 104.796C183.46 103.415 182.648 102.388 181.51 101.716C180.39 101.025 178.859 100.68 176.918 100.68ZM212.502 100.176V100.736C211.867 100.755 211.382 100.829 211.046 100.96C210.729 101.072 210.514 101.296 210.402 101.632C210.29 101.949 210.234 102.453 210.234 103.144V117.032C210.234 117.704 210.29 118.208 210.402 118.544C210.514 118.88 210.729 119.104 211.046 119.216C211.382 119.328 211.867 119.403 212.502 119.44V120C212.073 119.963 211.531 119.944 210.878 119.944C210.243 119.925 209.599 119.916 208.946 119.916C208.218 119.916 207.537 119.925 206.902 119.944C206.267 119.944 205.754 119.963 205.362 120V119.44C205.997 119.403 206.473 119.328 206.79 119.216C207.126 119.104 207.35 118.88 207.462 118.544C207.574 118.208 207.63 117.704 207.63 117.032V103.144C207.63 102.453 207.574 101.949 207.462 101.632C207.35 101.296 207.126 101.072 206.79 100.96C206.473 100.829 205.997 100.755 205.362 100.736V100.176C205.754 100.195 206.267 100.213 206.902 100.232C207.537 100.251 208.218 100.26 208.946 100.26C209.599 100.26 210.243 100.251 210.878 100.232C211.531 100.213 212.073 100.195 212.502 100.176ZM239.243 99.784C241.017 99.784 242.566 100.185 243.891 100.988C245.235 101.791 246.271 102.948 246.999 104.46C247.746 105.953 248.119 107.773 248.119 109.92C248.119 112.011 247.737 113.84 246.971 115.408C246.225 116.976 245.179 118.199 243.835 119.076C242.491 119.953 240.951 120.392 239.215 120.392C237.442 120.392 235.883 119.991 234.539 119.188C233.214 118.385 232.178 117.228 231.431 115.716C230.703 114.204 230.339 112.384 230.339 110.256C230.339 108.165 230.722 106.336 231.487 104.768C232.253 103.2 233.298 101.977 234.623 101.1C235.967 100.223 237.507 99.784 239.243 99.784ZM239.131 100.288C237.918 100.288 236.863 100.708 235.967 101.548C235.071 102.388 234.371 103.545 233.867 105.02C233.382 106.495 233.139 108.203 233.139 110.144C233.139 112.123 233.41 113.849 233.951 115.324C234.511 116.78 235.258 117.909 236.191 118.712C237.143 119.496 238.189 119.888 239.327 119.888C240.541 119.888 241.595 119.468 242.491 118.628C243.387 117.788 244.078 116.631 244.563 115.156C245.067 113.663 245.319 111.955 245.319 110.032C245.319 108.035 245.039 106.308 244.479 104.852C243.938 103.396 243.201 102.276 242.267 101.492C241.334 100.689 240.289 100.288 239.131 100.288Z" fill="#1B4332"/>
<rect y="76" width="321" height="1.5" fill="#C9A84C"/>
<path d="M15.888 18.016V18.976C14.8 19.008 13.968 19.136 13.392 19.36C12.848 19.552 12.48 19.936 12.288 20.512C12.096 21.056 12 21.92 12 23.104V47.296C12 48.32 12.08 49.104 12.24 49.648C12.432 50.16 12.768 50.496 13.248 50.656C13.728 50.816 14.416 50.896 15.312 50.896H18.048C19.296 50.896 20.384 50.672 21.312 50.224C22.272 49.776 23.104 49.12 23.808 48.256C24.512 47.392 25.088 46.336 25.536 45.088C25.984 43.808 26.304 42.368 26.496 40.768H27.6C27.504 41.824 27.456 43.2 27.456 44.896C27.456 45.6 27.472 46.608 27.504 47.92C27.568 49.232 27.664 50.592 27.792 52C26.16 51.936 24.32 51.904 22.272 51.904C20.224 51.872 18.4 51.856 16.8 51.856C16.032 51.856 15.056 51.856 13.872 51.856C12.688 51.856 11.392 51.872 9.984 51.904C8.608 51.904 7.2 51.92 5.76 51.952C4.352 51.952 3.008 51.968 1.728 52V51.04C2.784 50.976 3.568 50.848 4.08 50.656C4.624 50.464 4.976 50.08 5.136 49.504C5.328 48.928 5.424 48.064 5.424 46.912V23.104C5.424 21.92 5.328 21.056 5.136 20.512C4.976 19.936 4.624 19.552 4.08 19.36C3.568 19.136 2.784 19.008 1.728 18.976V18.016C2.528 18.048 3.552 18.08 4.8 18.112C6.048 18.144 7.392 18.16 8.832 18.16C10.144 18.16 11.44 18.144 12.72 18.112C14 18.08 15.056 18.048 15.888 18.016ZM64.3939 18.016C64.2659 19.328 64.1699 20.608 64.1059 21.856C64.0739 23.072 64.0579 24 64.0579 24.64C64.0579 25.248 64.0739 25.84 64.1059 26.416C64.1379 26.96 64.1699 27.424 64.2019 27.808H63.0979C62.8419 25.6 62.4259 23.872 61.8499 22.624C61.2739 21.344 60.4899 20.448 59.4979 19.936C58.5379 19.392 57.2739 19.12 55.7059 19.12H53.0659C52.1059 19.12 51.3699 19.2 50.8579 19.36C50.3459 19.52 49.9939 19.856 49.8019 20.368C49.6419 20.88 49.5619 21.664 49.5619 22.72V47.296C49.5619 48.32 49.6419 49.104 49.8019 49.648C49.9939 50.16 50.3459 50.496 50.8579 50.656C51.3699 50.816 52.1059 50.896 53.0659 50.896H55.8019C57.4339 50.896 58.7939 50.592 59.8819 49.984C61.0019 49.376 61.8979 48.384 62.5699 47.008C63.2419 45.6 63.7379 43.68 64.0579 41.248H65.1619C65.0659 42.24 65.0179 43.52 65.0179 45.088C65.0179 45.76 65.0339 46.736 65.0659 48.016C65.1299 49.296 65.2259 50.624 65.3539 52C63.7219 51.936 61.8819 51.904 59.8339 51.904C57.7859 51.872 55.9619 51.856 54.3619 51.856C53.6259 51.856 52.6499 51.856 51.4339 51.856C50.2499 51.856 48.9539 51.872 47.5459 51.904C46.1699 51.904 44.7619 51.92 43.3219 51.952C41.9139 51.952 40.5699 51.968 39.2899 52V51.04C40.3459 50.976 41.1299 50.848 41.6419 50.656C42.1859 50.464 42.5379 50.08 42.6979 49.504C42.8899 48.928 42.9859 48.064 42.9859 46.912V23.104C42.9859 21.92 42.8899 21.056 42.6979 20.512C42.5379 19.936 42.1859 19.552 41.6419 19.36C41.1299 19.136 40.3459 19.008 39.2899 18.976V18.016C40.5699 18.048 41.9139 18.08 43.3219 18.112C44.7619 18.112 46.1699 18.128 47.5459 18.16C48.9539 18.16 50.2499 18.16 51.4339 18.16C52.6499 18.16 53.6259 18.16 54.3619 18.16C55.8339 18.16 57.4979 18.16 59.3539 18.16C61.2419 18.128 62.9219 18.08 64.3939 18.016ZM56.6659 34.432C56.6659 34.432 56.6659 34.592 56.6659 34.912C56.6659 35.232 56.6659 35.392 56.6659 35.392H48.1219C48.1219 35.392 48.1219 35.232 48.1219 34.912C48.1219 34.592 48.1219 34.432 48.1219 34.432H56.6659ZM58.0579 28.096C57.9299 29.92 57.8659 31.312 57.8659 32.272C57.8979 33.232 57.9139 34.112 57.9139 34.912C57.9139 35.712 57.9299 36.592 57.9619 37.552C57.9939 38.512 58.0739 39.904 58.2019 41.728H57.0979C56.9379 40.64 56.6819 39.616 56.3299 38.656C56.0099 37.664 55.4819 36.88 54.7459 36.304C54.0419 35.696 53.0179 35.392 51.6739 35.392V34.432C52.6659 34.432 53.4659 34.224 54.0739 33.808C54.7139 33.392 55.2259 32.864 55.6099 32.224C55.9939 31.552 56.2819 30.864 56.4739 30.16C56.6979 29.424 56.8579 28.736 56.9539 28.096H58.0579ZM89.3539 17.44C91.1459 17.44 92.5219 17.632 93.4819 18.016C94.4419 18.4 95.2739 18.816 95.9779 19.264C96.3619 19.488 96.6659 19.664 96.8899 19.792C97.1459 19.888 97.3859 19.936 97.6099 19.936C97.9299 19.936 98.1539 19.76 98.2819 19.408C98.4419 19.056 98.5699 18.528 98.6659 17.824H99.7699C99.7379 18.432 99.6899 19.136 99.6259 19.936C99.5939 20.736 99.5619 21.808 99.5299 23.152C99.5299 24.464 99.5299 26.208 99.5299 28.384H98.4259C98.3299 26.752 97.9619 25.184 97.3219 23.68C96.7139 22.176 95.8339 20.944 94.6819 19.984C93.5619 18.992 92.1219 18.496 90.3619 18.496C88.7939 18.496 87.4819 18.96 86.4259 19.888C85.4019 20.816 84.8899 22.064 84.8899 23.632C84.8899 24.976 85.2259 26.112 85.8979 27.04C86.5699 27.936 87.5139 28.816 88.7299 29.68C89.9779 30.512 91.4499 31.472 93.1459 32.56C94.7139 33.584 96.1219 34.608 97.3699 35.632C98.6179 36.624 99.5939 37.728 100.298 38.944C101.034 40.16 101.402 41.648 101.402 43.408C101.402 45.488 100.89 47.216 99.8659 48.592C98.8419 49.968 97.4659 50.992 95.7379 51.664C94.0099 52.336 92.1219 52.672 90.0739 52.672C88.1859 52.672 86.6819 52.48 85.5619 52.096C84.4739 51.712 83.5299 51.312 82.7299 50.896C82.0259 50.448 81.4819 50.224 81.0979 50.224C80.7779 50.224 80.5379 50.4 80.3779 50.752C80.2499 51.104 80.1379 51.632 80.0419 52.336H78.9379C79.0019 51.6 79.0339 50.736 79.0339 49.744C79.0659 48.752 79.0819 47.472 79.0819 45.904C79.1139 44.304 79.1299 42.288 79.1299 39.856H80.2339C80.3619 41.904 80.7139 43.824 81.2899 45.616C81.8979 47.376 82.8099 48.8 84.0259 49.888C85.2739 50.976 86.9219 51.52 88.9699 51.52C90.0899 51.52 91.0979 51.328 91.9939 50.944C92.9219 50.528 93.6579 49.904 94.2019 49.072C94.7459 48.208 95.0179 47.12 95.0179 45.808C95.0179 44.496 94.7139 43.344 94.1059 42.352C93.4979 41.36 92.6499 40.432 91.5619 39.568C90.4739 38.704 89.1939 37.824 87.7219 36.928C86.2179 35.968 84.8099 34.992 83.4979 34C82.1859 33.008 81.1299 31.888 80.3299 30.64C79.5619 29.36 79.1779 27.824 79.1779 26.032C79.1779 24.048 79.6579 22.432 80.6179 21.184C81.5779 19.904 82.8259 18.96 84.3619 18.352C85.9299 17.744 87.5939 17.44 89.3539 17.44ZM128.058 18.016V18.976C126.97 19.008 126.138 19.136 125.562 19.36C125.018 19.552 124.65 19.936 124.458 20.512C124.266 21.056 124.17 21.92 124.17 23.104V47.296C124.17 48.32 124.25 49.104 124.41 49.648C124.602 50.16 124.938 50.496 125.418 50.656C125.898 50.816 126.586 50.896 127.482 50.896H130.218C131.466 50.896 132.554 50.672 133.482 50.224C134.442 49.776 135.274 49.12 135.978 48.256C136.682 47.392 137.258 46.336 137.706 45.088C138.154 43.808 138.474 42.368 138.666 40.768H139.77C139.674 41.824 139.626 43.2 139.626 44.896C139.626 45.6 139.642 46.608 139.674 47.92C139.738 49.232 139.834 50.592 139.962 52C138.33 51.936 136.49 51.904 134.442 51.904C132.394 51.872 130.57 51.856 128.97 51.856C128.202 51.856 127.226 51.856 126.042 51.856C124.858 51.856 123.562 51.872 122.154 51.904C120.778 51.904 119.37 51.92 117.93 51.952C116.522 51.952 115.178 51.968 113.898 52V51.04C114.954 50.976 115.738 50.848 116.25 50.656C116.794 50.464 117.146 50.08 117.306 49.504C117.498 48.928 117.594 48.064 117.594 46.912V23.104C117.594 21.92 117.498 21.056 117.306 20.512C117.146 19.936 116.794 19.552 116.25 19.36C115.738 19.136 114.954 19.008 113.898 18.976V18.016C114.698 18.048 115.722 18.08 116.97 18.112C118.218 18.144 119.562 18.16 121.002 18.16C122.314 18.16 123.61 18.144 124.89 18.112C126.17 18.08 127.226 18.048 128.058 18.016ZM165.428 18.016V18.976C164.404 19.008 163.62 19.136 163.076 19.36C162.564 19.552 162.212 19.936 162.02 20.512C161.828 21.056 161.732 21.92 161.732 23.104V46.912C161.732 48.064 161.828 48.928 162.02 49.504C162.212 50.08 162.564 50.464 163.076 50.656C163.62 50.848 164.404 50.976 165.428 51.04V52C164.628 51.936 163.604 51.904 162.356 51.904C161.108 51.872 159.844 51.856 158.564 51.856C157.124 51.856 155.78 51.872 154.532 51.904C153.284 51.904 152.26 51.936 151.46 52V51.04C152.516 50.976 153.3 50.848 153.812 50.656C154.356 50.464 154.708 50.08 154.868 49.504C155.06 48.928 155.156 48.064 155.156 46.912V23.104C155.156 21.92 155.06 21.056 154.868 20.512C154.708 19.936 154.356 19.552 153.812 19.36C153.3 19.136 152.516 19.008 151.46 18.976V18.016C152.26 18.048 153.284 18.08 154.532 18.112C155.78 18.144 157.124 18.16 158.564 18.16C159.844 18.16 161.108 18.144 162.356 18.112C163.604 18.08 164.628 18.048 165.428 18.016ZM202.688 18.016C202.56 19.328 202.464 20.608 202.4 21.856C202.368 23.072 202.352 24 202.352 24.64C202.352 25.248 202.368 25.84 202.4 26.416C202.432 26.96 202.464 27.424 202.496 27.808H201.392C201.136 25.6 200.72 23.872 200.144 22.624C199.568 21.344 198.784 20.448 197.792 19.936C196.832 19.392 195.568 19.12 194 19.12H191.36C190.4 19.12 189.664 19.2 189.152 19.36C188.64 19.52 188.288 19.856 188.096 20.368C187.936 20.88 187.856 21.664 187.856 22.72V47.296C187.856 48.32 187.936 49.104 188.096 49.648C188.288 50.16 188.64 50.496 189.152 50.656C189.664 50.816 190.4 50.896 191.36 50.896H194.096C195.728 50.896 197.088 50.592 198.176 49.984C199.296 49.376 200.192 48.384 200.864 47.008C201.536 45.6 202.032 43.68 202.352 41.248H203.456C203.36 42.24 203.312 43.52 203.312 45.088C203.312 45.76 203.328 46.736 203.36 48.016C203.424 49.296 203.52 50.624 203.648 52C202.016 51.936 200.176 51.904 198.128 51.904C196.08 51.872 194.256 51.856 192.656 51.856C191.92 51.856 190.944 51.856 189.728 51.856C188.544 51.856 187.248 51.872 185.84 51.904C184.464 51.904 183.056 51.92 181.616 51.952C180.208 51.952 178.864 51.968 177.584 52V51.04C178.64 50.976 179.424 50.848 179.936 50.656C180.48 50.464 180.832 50.08 180.992 49.504C181.184 48.928 181.28 48.064 181.28 46.912V23.104C181.28 21.92 181.184 21.056 180.992 20.512C180.832 19.936 180.48 19.552 179.936 19.36C179.424 19.136 178.64 19.008 177.584 18.976V18.016C178.864 18.048 180.208 18.08 181.616 18.112C183.056 18.112 184.464 18.128 185.84 18.16C187.248 18.16 188.544 18.16 189.728 18.16C190.944 18.16 191.92 18.16 192.656 18.16C194.128 18.16 195.792 18.16 197.648 18.16C199.536 18.128 201.216 18.08 202.688 18.016ZM194.96 34.432C194.96 34.432 194.96 34.592 194.96 34.912C194.96 35.232 194.96 35.392 194.96 35.392H186.416C186.416 35.392 186.416 35.232 186.416 34.912C186.416 34.592 186.416 34.432 186.416 34.432H194.96ZM196.352 28.096C196.224 29.92 196.16 31.312 196.16 32.272C196.192 33.232 196.208 34.112 196.208 34.912C196.208 35.712 196.224 36.592 196.256 37.552C196.288 38.512 196.368 39.904 196.496 41.728H195.392C195.232 40.64 194.976 39.616 194.624 38.656C194.304 37.664 193.776 36.88 193.04 36.304C192.336 35.696 191.312 35.392 189.968 35.392V34.432C190.96 34.432 191.76 34.224 192.368 33.808C193.008 33.392 193.52 32.864 193.904 32.224C194.288 31.552 194.576 30.864 194.768 30.16C194.992 29.424 195.152 28.736 195.248 28.096H196.352ZM247.773 17.44C249.565 17.44 250.941 17.632 251.901 18.016C252.861 18.4 253.693 18.816 254.397 19.264C254.781 19.488 255.085 19.664 255.309 19.792C255.565 19.888 255.805 19.936 256.029 19.936C256.349 19.936 256.573 19.76 256.701 19.408C256.861 19.056 256.989 18.528 257.085 17.824H258.189C258.157 18.432 258.109 19.136 258.045 19.936C258.013 20.736 257.981 21.808 257.949 23.152C257.949 24.464 257.949 26.208 257.949 28.384H256.845C256.749 26.752 256.381 25.184 255.741 23.68C255.133 22.176 254.253 20.944 253.101 19.984C251.981 18.992 250.541 18.496 248.781 18.496C247.213 18.496 245.901 18.96 244.845 19.888C243.821 20.816 243.309 22.064 243.309 23.632C243.309 24.976 243.645 26.112 244.317 27.04C244.989 27.936 245.933 28.816 247.149 29.68C248.397 30.512 249.869 31.472 251.565 32.56C253.133 33.584 254.541 34.608 255.789 35.632C257.037 36.624 258.013 37.728 258.717 38.944C259.453 40.16 259.821 41.648 259.821 43.408C259.821 45.488 259.309 47.216 258.285 48.592C257.261 49.968 255.885 50.992 254.157 51.664C252.429 52.336 250.541 52.672 248.493 52.672C246.605 52.672 245.101 52.48 243.981 52.096C242.893 51.712 241.949 51.312 241.149 50.896C240.445 50.448 239.901 50.224 239.517 50.224C239.197 50.224 238.957 50.4 238.797 50.752C238.669 51.104 238.557 51.632 238.461 52.336H237.357C237.421 51.6 237.453 50.736 237.453 49.744C237.485 48.752 237.501 47.472 237.501 45.904C237.533 44.304 237.549 42.288 237.549 39.856H238.653C238.781 41.904 239.133 43.824 239.709 45.616C240.317 47.376 241.229 48.8 242.445 49.888C243.693 50.976 245.341 51.52 247.389 51.52C248.509 51.52 249.517 51.328 250.413 50.944C251.341 50.528 252.077 49.904 252.621 49.072C253.165 48.208 253.437 47.12 253.437 45.808C253.437 44.496 253.133 43.344 252.525 42.352C251.917 41.36 251.069 40.432 249.981 39.568C248.893 38.704 247.613 37.824 246.141 36.928C244.637 35.968 243.229 34.992 241.917 34C240.605 33.008 239.549 31.888 238.749 30.64C237.981 29.36 237.597 27.824 237.597 26.032C237.597 24.048 238.077 22.432 239.037 21.184C239.997 19.904 241.245 18.96 242.781 18.352C244.349 17.744 246.013 17.44 247.773 17.44ZM300.637 18.016C300.509 19.488 300.413 20.928 300.349 22.336C300.317 23.712 300.301 24.768 300.301 25.504C300.301 26.24 300.317 26.928 300.349 27.568C300.381 28.208 300.413 28.768 300.445 29.248H299.341C298.893 26.688 298.349 24.688 297.709 23.248C297.069 21.776 296.221 20.72 295.165 20.08C294.141 19.44 292.781 19.12 291.085 19.12H289.549V46.48C289.549 47.792 289.661 48.768 289.885 49.408C290.141 50.048 290.637 50.48 291.373 50.704C292.109 50.896 293.181 51.008 294.589 51.04V52C293.629 51.936 292.381 51.904 290.845 51.904C289.309 51.872 287.741 51.856 286.141 51.856C284.477 51.856 282.909 51.872 281.437 51.904C279.997 51.904 278.829 51.936 277.933 52V51.04C279.309 51.008 280.365 50.896 281.101 50.704C281.837 50.48 282.333 50.048 282.589 49.408C282.845 48.768 282.973 47.792 282.973 46.48V19.12H281.389C279.725 19.12 278.365 19.44 277.309 20.08C276.253 20.72 275.405 21.776 274.765 23.248C274.125 24.688 273.597 26.688 273.181 29.248H272.077C272.141 28.768 272.173 28.208 272.173 27.568C272.205 26.928 272.221 26.24 272.221 25.504C272.221 24.768 272.189 23.712 272.125 22.336C272.093 20.928 272.013 19.488 271.885 18.016C273.293 18.048 274.845 18.08 276.541 18.112C278.237 18.144 279.933 18.16 281.629 18.16C283.325 18.16 284.877 18.16 286.285 18.16C287.661 18.16 289.197 18.16 290.893 18.16C292.589 18.16 294.285 18.144 295.981 18.112C297.677 18.08 299.229 18.048 300.637 18.016ZM314.487 45.664C315.575 45.664 316.471 45.984 317.175 46.624C317.879 47.264 318.231 48.112 318.231 49.168C318.231 50.224 317.879 51.072 317.175 51.712C316.471 52.352 315.575 52.672 314.487 52.672C313.367 52.672 312.455 52.352 311.751 51.712C311.079 51.072 310.743 50.224 310.743 49.168C310.743 48.112 311.079 47.264 311.751 46.624C312.455 45.984 313.367 45.664 314.487 45.664Z" fill="#1B4332"/>
</svg>
